<svg width="28" height="28" viewBox="0 0 28 28" fill="none" xmlns="http://www.w3.org/2000/svg">
<g filter="url(#filter0_d)">
<path d="M9.50049 6.744C9.84749 6.362 10.4155 6 11.2505 6C12.4025 6 13.1445 6.792 13.4055 7.661C13.6585 8.508 13.5055 9.556 12.7855 10.279C12.5358 10.5191 12.2709 10.7429 11.9925 10.949L11.9525 10.98C11.6725 11.196 11.4225 11.392 11.2025 11.61C10.9475 11.866 10.7385 12.145 10.6175 12.5H12.7505C12.9494 12.5 13.1402 12.579 13.2808 12.7197C13.4215 12.8603 13.5005 13.0511 13.5005 13.25C13.5005 13.4489 13.4215 13.6397 13.2808 13.7803C13.1402 13.921 12.9494 14 12.7505 14H9.75049C9.55157 14 9.36081 13.921 9.22016 13.7803C9.0795 13.6397 9.00049 13.4489 9.00049 13.25C9.00049 12.003 9.52449 11.167 10.1445 10.549C10.4405 10.253 10.7625 10.004 11.0345 9.793L11.0375 9.791C11.3235 9.57 11.5455 9.398 11.7225 9.221C11.9945 8.947 12.0895 8.496 11.9685 8.091C11.8535 7.71 11.5985 7.5 11.2505 7.5C10.8975 7.5 10.7155 7.637 10.6105 7.753C10.5491 7.8208 10.4991 7.89814 10.4625 7.982V7.985C10.4012 8.17436 10.2672 8.33164 10.09 8.42222C9.9128 8.5128 9.70685 8.52927 9.51749 8.468C9.32812 8.40674 9.17085 8.27275 9.08027 8.09553C8.98969 7.91831 8.97322 7.71236 9.03449 7.523L9.06949 7.427C9.17223 7.17617 9.31772 6.94508 9.49949 6.744H9.50049Z" fill="#7E7EFD"/>
<path d="M15.25 6C15.4489 6 15.6397 6.07902 15.7803 6.21967C15.921 6.36032 16 6.55109 16 6.75V9.5H17.5V6.75C17.5 6.55109 17.579 6.36032 17.7197 6.21967C17.8603 6.07902 18.0511 6 18.25 6C18.4489 6 18.6397 6.07902 18.7803 6.21967C18.921 6.36032 19 6.55109 19 6.75V13.22C19 13.4189 18.921 13.6097 18.7803 13.7503C18.6397 13.891 18.4489 13.97 18.25 13.97C18.0511 13.97 17.8603 13.891 17.7197 13.7503C17.579 13.6097 17.5 13.4189 17.5 13.22V11H15.25C15.0511 11 14.8603 10.921 14.7197 10.7803C14.579 10.6397 14.5 10.4489 14.5 10.25V6.75C14.5 6.55109 14.579 6.36032 14.7197 6.21967C14.8603 6.07902 15.0511 6 15.25 6V6Z" fill="#7E7EFD"/>
<path d="M24 10C24 4.477 19.523 0 14 0C8.477 0 4 4.477 4 10C4 15.523 8.477 20 14 20C19.523 20 24 15.523 24 10ZM5.5 10C5.5 7.74566 6.39553 5.58365 7.98959 3.98959C9.58365 2.39553 11.7457 1.5 14 1.5C16.2543 1.5 18.4163 2.39553 20.0104 3.98959C21.6045 5.58365 22.5 7.74566 22.5 10C22.5 12.2543 21.6045 14.4163 20.0104 16.0104C18.4163 17.6045 16.2543 18.5 14 18.5C11.7457 18.5 9.58365 17.6045 7.98959 16.0104C6.39553 14.4163 5.5 12.2543 5.5 10V10Z" fill="#7E7EFD"/>
</g>
<defs>
<filter id="filter0_d" x="0" y="0" width="28" height="28" filterUnits="userSpaceOnUse" color-interpolation-filters="sRGB">
<feFlood flood-opacity="0" result="BackgroundImageFix"/>
<feColorMatrix in="SourceAlpha" type="matrix" values="0 0 0 0 0 0 0 0 0 0 0 0 0 0 0 0 0 0 127 0" result="hardAlpha"/>
<feOffset dy="4"/>
<feGaussianBlur stdDeviation="2"/>
<feComposite in2="hardAlpha" operator="out"/>
<feColorMatrix type="matrix" values="0 0 0 0 0 0 0 0 0 0 0 0 0 0 0 0 0 0 0.14 0"/>
<feBlend mode="normal" in2="BackgroundImageFix" result="effect1_dropShadow"/>
<feBlend mode="normal" in="SourceGraphic" in2="effect1_dropShadow" result="shape"/>
</filter>
</defs>
</svg>
