<svg width="41" height="39" viewBox="0 0 41 39" fill="none" xmlns="http://www.w3.org/2000/svg">
<g filter="url(#filter0_d)">
<path fill-rule="evenodd" clip-rule="evenodd" d="M16.3664 3.83174C16.3664 3.00331 17.038 2.33174 17.8664 2.33174C18.2903 2.33174 18.9813 2.4939 19.365 3.19256C19.6576 3.72535 19.5655 4.2437 19.5346 4.40111C19.4924 4.61634 19.4209 4.80393 19.3864 4.89274C19.3362 5.0222 19.3358 5.02006 19.3379 5.01306C18.8469 6.54284 17.7029 7.90801 16.8769 8.88376C15.4156 10.6101 13.6 12.0505 11.3419 13.1211C9.61193 13.9413 8.06179 13.9413 6.50841 13.9413H6.5C5.67157 13.9413 5 13.2697 5 12.4413C5 11.6129 5.67157 10.9413 6.5 10.9413C8.08284 10.9413 9.00253 10.9101 10.0567 10.4104C11.9208 9.52656 13.3961 8.35248 14.5872 6.94547C15.4266 5.95379 16.1152 5.07705 16.4265 4.25335C16.3874 4.1196 16.3664 3.97812 16.3664 3.83174ZM23.5158 1.80766C23.8984 2.54248 23.6128 3.44828 22.878 3.83081C22.6593 3.94466 22.4334 4.05394 22.2306 4.1521C22.1934 4.1701 22.157 4.18773 22.1215 4.20494C21.8818 4.32129 21.6725 4.42498 21.479 4.53224C21.4107 4.57005 21.343 4.61187 21.2373 4.67715C21.2277 4.68308 21.2178 4.6892 21.2076 4.69553C21.0977 4.76338 20.9466 4.85617 20.7797 4.94346C20.4305 5.12604 19.9552 5.31612 19.3562 5.33121C19.0096 5.33994 18.6392 5.33691 18.302 5.33415C18.1479 5.33289 18.0008 5.33168 17.8661 5.33168C17.0376 5.33168 16.3661 4.66011 16.3661 3.83168C16.3661 3.00325 17.0376 2.33168 17.8661 2.33168C18.0553 2.33168 18.2297 2.33318 18.3963 2.33462C18.7022 2.33726 18.9822 2.33967 19.2804 2.33216L19.2818 2.33186L19.2884 2.33005C19.3014 2.32607 19.3319 2.31513 19.3897 2.28492C19.4518 2.25243 19.5216 2.21074 19.6316 2.1428C19.6421 2.13635 19.6531 2.12954 19.6646 2.1224C19.7599 2.06347 19.89 1.98293 20.0248 1.90823C20.2953 1.75833 20.568 1.62424 20.8117 1.506C20.8531 1.4859 20.8935 1.46635 20.933 1.44722C21.1363 1.34878 21.3163 1.2616 21.4927 1.1698C22.2275 0.787267 23.1333 1.07285 23.5158 1.80766ZM22.1861 1.2667C23.0146 1.2667 23.6861 1.93827 23.6861 2.7667C23.6861 3.3914 24.0481 4.05484 24.995 4.76598C25.9352 5.47214 27.2329 6.04866 28.551 6.4934C29.0044 6.64638 29.4918 6.76076 30.0411 6.87736C30.1521 6.90094 30.2675 6.92493 30.3859 6.94957C30.8257 7.04107 31.3079 7.14138 31.7708 7.26187C32.5725 7.47055 33.0533 8.28964 32.8446 9.09135C32.6359 9.89306 31.8168 10.3738 31.0151 10.1651C30.6311 10.0652 30.246 9.98497 29.8185 9.89591C29.6893 9.869 29.5562 9.84128 29.4181 9.81196C28.8486 9.69106 28.219 9.54757 27.5919 9.33595C26.1509 8.84975 24.506 8.15065 23.1933 7.16475C21.8873 6.18382 20.6861 4.73876 20.6861 2.7667C20.6861 1.93827 21.3577 1.2667 22.1861 1.2667ZM31.6886 7.29798C32.5022 7.4536 33.0357 8.23938 32.8801 9.05305C32.7214 9.88268 32.3644 10.5943 32.0319 11.1715C31.8898 11.4181 31.7384 11.6627 31.6017 11.8837C31.5785 11.9211 31.5558 11.9579 31.5336 11.9939C31.3738 12.2527 31.2346 12.4823 31.1127 12.7071C31.0174 12.8827 30.9256 13.0761 30.861 13.2544C30.8006 13.421 30.7883 13.5081 30.786 13.5248C30.7856 13.5278 30.7855 13.5285 30.7855 13.5269C30.7855 13.6945 30.7673 13.8432 30.7512 13.9493C30.7371 14.0433 30.719 14.1379 30.707 14.2011C30.7057 14.2079 30.7044 14.2143 30.7033 14.2203C30.6776 14.3559 30.6742 14.3917 30.6739 14.3917C30.6738 14.3917 30.6738 14.3901 30.6738 14.3874C30.6738 14.5675 30.6317 15.2749 30.6099 15.4952C30.6081 15.5141 30.6055 15.5389 30.6021 15.5654L30.6019 15.567C30.6 15.5825 30.592 15.6466 30.5754 15.7214C30.5702 15.7446 30.5608 15.7847 30.546 15.8334C30.5353 15.8686 30.5024 15.9753 30.436 16.101C30.4032 16.1629 30.334 16.2843 30.2156 16.4135C30.1074 16.5316 29.8494 16.7754 29.4252 16.8667C28.93 16.9733 28.4952 16.8144 28.2102 16.601C27.9696 16.4209 27.8453 16.2148 27.7952 16.1239C27.6941 15.9403 27.6566 15.7781 27.6475 15.7383L27.647 15.7364C27.6323 15.6728 27.6248 15.6212 27.6212 15.5941C27.6138 15.5386 27.611 15.4937 27.6099 15.4745C27.604 15.3707 27.6078 15.2261 27.6107 15.1211C27.6181 14.8459 27.6374 14.3318 27.6752 13.4619C27.6862 13.2089 27.7592 12.9732 27.879 12.769C27.9256 12.5703 27.984 12.3882 28.0407 12.2318C28.171 11.8723 28.3335 11.5388 28.4755 11.2769C28.6411 10.9717 28.8192 10.6798 28.9808 10.4181C29.0059 10.3774 29.0306 10.3375 29.0548 10.2984C29.1924 10.0758 29.3158 9.87626 29.4325 9.6738C29.7066 9.19802 29.8685 8.82933 29.9335 8.4895C30.0891 7.67582 30.8749 7.14236 31.6886 7.29798ZM27.6247 15.1981C27.6246 15.1989 27.6245 15.1997 27.6245 15.2005C27.6223 15.2223 27.6222 15.2182 27.6247 15.1981ZM5.53495 12.0096C5.74129 11.2073 6.55897 10.7242 7.36129 10.9305C8.0985 11.1201 8.69352 11.5538 9.00447 11.7805C9.00909 11.7839 9.01365 11.7872 9.01815 11.7905C9.07044 11.8286 9.13716 11.8653 9.2899 11.9494C9.33815 11.976 9.395 12.0072 9.46268 12.0448C9.57696 12.1082 9.72166 12.1904 9.86497 12.285C10.0044 12.377 10.1865 12.509 10.3575 12.6849C10.4143 12.7434 10.4824 12.7942 10.6973 12.9547L10.708 12.9627C10.8897 13.0983 11.2037 13.3329 11.4764 13.6671C12.2093 14.5651 12.8467 15.8948 12.8467 17.1821C12.8467 17.2346 12.8467 17.2874 12.8467 17.3404C12.8472 18.5449 12.8477 19.8626 12.6224 21.2146C12.5073 21.9049 12.2411 22.4713 12.0184 22.903C11.9433 23.0487 11.8768 23.1734 11.8169 23.2858C11.6772 23.5476 11.5734 23.7424 11.4789 23.9801C11.4609 24.0256 11.4442 24.068 11.4285 24.1083C11.3363 24.3436 11.2728 24.5056 11.1202 24.7702C11.0803 24.8394 11.0265 24.9295 10.9604 25.0401C10.9241 25.101 10.8841 25.168 10.8407 25.2411C10.8128 25.288 10.7826 25.3391 10.7497 25.3949C10.9698 25.4467 11.1908 25.5071 11.4074 25.5774C11.422 25.5786 11.4373 25.5795 11.4585 25.5809C11.484 25.5825 11.518 25.5847 11.5697 25.5884C11.661 25.5949 11.8184 25.6072 11.988 25.6406C12.1433 25.6712 12.3815 25.7326 12.6304 25.8753C12.6391 25.8784 12.6511 25.8825 12.6668 25.8875C12.7376 25.9098 12.8363 25.9355 12.968 25.9657C13.0611 25.987 13.1498 26.0059 13.2467 26.0266C13.2907 26.036 13.3364 26.0457 13.385 26.0562C13.5225 26.0859 13.6937 26.1239 13.8491 26.1683C14.5198 26.36 15.1828 26.5638 15.8292 26.7626L15.9041 26.7856C16.0602 26.8336 16.2154 26.8813 16.3699 26.9286C16.3604 26.5798 16.3555 26.1948 16.3891 25.7279C16.4654 24.6687 17.1568 24.0245 17.6018 23.6855C17.8339 23.5087 18.0791 23.3553 18.2624 23.241L18.278 23.2312C18.4744 23.1087 18.6077 23.0255 18.7225 22.9418C19.4862 22.3854 20.3254 22.3068 21.0539 22.4435C21.726 22.5695 22.3371 22.8818 22.8097 23.1571C23.1052 23.3293 23.4459 23.5498 23.7361 23.7376C23.8829 23.8326 24.0169 23.9193 24.1255 23.9871C24.3948 24.1553 24.5873 24.2607 24.7238 24.3231C24.742 24.3213 24.7613 24.3193 24.7818 24.3171C24.9954 24.2942 25.2782 24.2586 25.5672 24.2188C25.7838 24.189 25.9966 24.1578 26.1783 24.1295C26.2918 24.0324 26.3971 23.9689 26.4639 23.9316C26.5596 23.8782 26.6514 23.8376 26.7244 23.8078C27.2322 23.6004 27.7402 23.5078 28.1006 23.4427L28.135 23.4365C28.5193 23.3671 28.7589 23.3239 28.9845 23.2465C29.2287 23.1628 29.4791 23.087 29.7024 23.0194L29.7134 23.0161C29.9487 22.9448 30.1579 22.8813 30.3591 22.8128C30.6024 22.7299 30.7967 22.6515 30.9524 22.5738C30.5767 22.4218 30.1916 22.2463 29.8405 22.0437C29.4214 21.8018 28.8936 21.4338 28.5464 20.883C27.8413 19.7648 27.659 18.5131 27.6174 17.4522C27.5964 16.9141 27.6108 16.3847 27.6282 15.9101C27.632 15.8071 27.6358 15.7077 27.6396 15.6113C27.6537 15.2455 27.6662 14.9236 27.6662 14.6155C27.6662 13.7871 28.3378 13.1155 29.1662 13.1155C29.9946 13.1155 30.6662 13.7871 30.6662 14.6155C30.6662 14.9877 30.6507 15.3847 30.6362 15.7569C30.6328 15.8462 30.6293 15.9341 30.6262 16.0199C30.6093 16.4825 30.5988 16.9168 30.6151 17.3348C30.6479 18.1719 30.7859 18.7961 31.0691 19.2589C31.079 19.2668 31.1482 19.3346 31.3403 19.4455C31.5862 19.5874 31.9189 19.7354 32.324 19.8893C32.7248 20.0415 33.1494 20.1822 33.5763 20.3231L33.6231 20.3385C34.0164 20.4682 34.4348 20.6062 34.7764 20.7418L34.9916 20.8272L35.1711 20.9735C35.4124 21.1702 35.9109 21.6281 35.9711 22.3616C36.0487 23.3087 35.3849 23.8356 35.0317 24.02C34.6793 24.204 34.3175 24.2554 34.0603 24.2631C34.0164 24.2644 33.9673 24.2647 33.9139 24.2631C33.6286 24.4103 33.2637 24.6374 32.9946 24.8341C32.4449 25.2358 31.8329 25.4801 31.3263 25.6526C31.0726 25.739 30.8182 25.816 30.5942 25.8839L30.5828 25.8873C30.3467 25.9588 30.1452 26.02 29.9576 26.0843C29.5057 26.2393 29.0501 26.3206 28.722 26.3792C28.6914 26.3846 28.662 26.3899 28.6338 26.395C28.4357 26.4307 28.2813 26.4611 28.1531 26.4927C28.1259 26.5197 28.0999 26.5438 28.0758 26.5651C27.9729 26.656 27.8709 26.7254 27.7882 26.7764C27.6287 26.8748 27.4817 26.9221 27.4544 26.9309C27.4532 26.9313 27.4522 26.9316 27.4515 26.9318C27.3996 26.9488 27.3545 26.9607 27.3267 26.9678C27.2691 26.9824 27.2117 26.9945 27.166 27.0036C27.0707 27.0226 26.9552 27.0428 26.8352 27.0625C26.5916 27.1026 26.2825 27.1486 25.9763 27.1907C25.6708 27.2328 25.3555 27.2728 25.1009 27.3001C24.9756 27.3135 24.8507 27.3253 24.7436 27.3322C24.6917 27.3356 24.6261 27.339 24.5583 27.3392C24.5581 27.3392 24.5577 27.3392 24.557 27.3393C24.5379 27.3397 24.3313 27.3442 24.1063 27.2829C23.5135 27.1215 22.954 26.7925 22.5365 26.5318C22.3326 26.4044 22.1595 26.2918 21.998 26.1868C21.7606 26.0324 21.5482 25.8942 21.2993 25.7492C20.9088 25.5217 20.6568 25.4213 20.5007 25.392C20.4848 25.389 20.472 25.3872 20.462 25.3861C20.2639 25.5286 20.0551 25.6587 19.894 25.759C19.8792 25.7682 19.8648 25.7772 19.8508 25.786C19.6564 25.9073 19.5251 25.9916 19.4198 26.0718C19.4008 26.0864 19.3845 26.0993 19.3706 26.1107C19.3544 26.4057 19.3607 26.5764 19.3695 26.8143C19.3765 27.0025 19.3851 27.2327 19.3852 27.5997C19.3855 27.6039 19.3864 27.6195 19.3889 27.6518C19.3893 27.6573 19.3907 27.674 19.3924 27.6959C19.3964 27.7446 19.4026 27.8193 19.4054 27.8565C19.4169 28.0106 19.4333 28.2652 19.4125 28.5287C19.3966 28.7313 19.3421 29.2599 18.9635 29.7152C18.7416 29.9821 18.4269 30.1999 18.035 30.2946C17.6653 30.3839 17.3311 30.3388 17.0823 30.2685C16.3835 30.0711 15.6942 29.8597 15.0224 29.6531L14.9575 29.6332C14.3034 29.4321 13.666 29.2361 13.0249 29.0529C12.935 29.0272 12.8424 29.0077 12.7078 28.9794C12.6031 28.9573 12.4729 28.9299 12.2989 28.8901L12.2941 28.889C12.087 28.8416 11.6896 28.7507 11.3282 28.5788C11.319 28.5782 11.3108 28.5777 11.3017 28.5771C11.2862 28.5761 11.2682 28.575 11.2385 28.5729C11.1923 28.5697 11.1323 28.5653 11.0678 28.5586C10.9509 28.5465 10.7488 28.5208 10.5292 28.4467C10.2532 28.3536 9.92814 28.2769 9.5853 28.2202C9.29028 28.1715 9.05815 28.0387 9.01333 28.0131C9.01115 28.0118 9.00941 28.0109 9.00813 28.0101C8.91486 27.9578 8.82595 27.8999 8.74978 27.847C8.59581 27.7402 8.42412 27.6058 8.26456 27.462C8.12209 27.3335 7.91149 27.1287 7.74649 26.8796C7.6704 26.7647 7.52532 26.5256 7.46487 26.2011C7.44395 26.0889 7.43289 25.9576 7.44024 25.8163C7.43365 25.7701 7.42919 25.7241 7.42672 25.6786C7.41804 25.5184 7.43453 25.3752 7.45995 25.2555C7.48518 25.1366 7.52057 25.0342 7.55525 24.9511C7.59007 24.8677 7.62797 24.7946 7.6635 24.7329C7.93459 24.2623 8.1244 23.9398 8.26115 23.7095C8.32042 23.6096 8.36647 23.5325 8.40362 23.4704C8.45706 23.3809 8.49206 23.3223 8.52147 23.2713C8.53263 23.2519 8.53905 23.2419 8.54486 23.2315C8.5622 23.2005 8.57413 23.1665 8.69083 22.8727C8.85294 22.4645 9.07094 22.0565 9.2325 21.7541C9.2776 21.6697 9.3183 21.5935 9.35216 21.5279C9.53496 21.1734 9.62648 20.9416 9.66318 20.7214C9.84682 19.6195 9.84677 18.5231 9.84671 17.2504C9.84671 17.2277 9.8467 17.2049 9.8467 17.1821C9.8467 16.784 9.59218 16.103 9.15217 15.5639C9.13704 15.5453 9.09551 15.5027 8.9132 15.3665C8.89815 15.3553 8.88123 15.3428 8.8627 15.3291C8.71384 15.2191 8.46076 15.0322 8.23205 14.8022C8.22729 14.7988 8.22086 14.7944 8.21257 14.7889C8.16827 14.7597 8.10513 14.7224 8.00715 14.668C7.98304 14.6547 7.95191 14.6376 7.91716 14.6186C7.84195 14.5773 7.74978 14.5268 7.67507 14.4842C7.55522 14.4159 7.4019 14.3247 7.25143 14.2151C7.09309 14.0997 6.9688 14.0128 6.84958 13.9436C6.73192 13.8753 6.65637 13.8469 6.61408 13.836C5.81176 13.6296 5.32862 12.812 5.53495 12.0096ZM8.32097 27.0168C8.32714 27.0199 8.32611 27.0195 8.32065 27.0167L8.32097 27.0168ZM19.3018 26.1744C19.3017 26.1744 19.3029 26.1729 19.3058 26.1698C19.3034 26.1729 19.3019 26.1744 19.3018 26.1744ZM11.3646 25.5731C11.3647 25.5731 11.367 25.5733 11.3714 25.574C11.3667 25.5735 11.3645 25.5731 11.3646 25.5731ZM9.66545 24.335C9.65429 24.3294 9.66194 24.3326 9.68176 24.3432L9.66545 24.335Z" fill="#7E7EFD"/>
<path d="M19.365 3.19256L18.9267 3.43323L18.9267 3.43323L19.365 3.19256ZM19.5346 4.40111L19.044 4.30495L19.044 4.30495L19.5346 4.40111ZM19.3864 4.89274L19.8526 5.07359L19.8526 5.07358L19.3864 4.89274ZM19.3379 5.01306L19.8164 5.15822L18.8618 4.86025L19.3379 5.01306ZM16.8769 8.88376L17.2586 9.20681L17.2586 9.20681L16.8769 8.88376ZM11.3419 13.1211L11.1277 12.6693L11.1277 12.6693L11.3419 13.1211ZM6.50841 13.9413L6.50841 13.4413H6.50841V13.9413ZM10.0567 10.4104L9.84247 9.95856L9.84247 9.95856L10.0567 10.4104ZM14.5872 6.94547L14.2055 6.62243L14.2055 6.62243L14.5872 6.94547ZM16.4265 4.25335L16.8942 4.43011L16.9533 4.27363L16.9064 4.11306L16.4265 4.25335ZM22.878 3.83081L22.6471 3.38731L22.878 3.83081ZM23.5158 1.80766L23.9593 1.57678L23.9593 1.57678L23.5158 1.80766ZM22.2306 4.1521L22.4484 4.60217L22.4484 4.60217L22.2306 4.1521ZM22.1215 4.20494L21.9032 3.75512L21.9032 3.75512L22.1215 4.20494ZM21.479 4.53224L21.2366 4.09491L21.2366 4.09491L21.479 4.53224ZM21.2373 4.67715L20.9746 4.25175L20.9746 4.25176L21.2373 4.67715ZM21.2076 4.69553L20.9449 4.27007L20.9449 4.27008L21.2076 4.69553ZM20.7797 4.94346L21.0114 5.38655L20.7797 4.94346ZM19.3562 5.33121L19.3436 4.83136L19.3436 4.83136L19.3562 5.33121ZM18.302 5.33415L18.2979 5.83413L18.2979 5.83413L18.302 5.33415ZM18.3963 2.33462L18.392 2.8346L18.392 2.8346L18.3963 2.33462ZM19.2804 2.33216L19.293 2.83201L19.3397 2.83083L19.3854 2.82101L19.2804 2.33216ZM19.2818 2.33186L19.3869 2.8207L19.401 2.81767L19.4149 2.81382L19.2818 2.33186ZM19.2884 2.33005L19.4215 2.81218L19.4339 2.8084L19.2884 2.33005ZM19.3897 2.28492L19.158 1.84183L19.158 1.84183L19.3897 2.28492ZM19.6316 2.1428L19.8943 2.56826L19.8943 2.56826L19.6316 2.1428ZM19.6646 2.1224L19.4015 1.69723L19.4015 1.69723L19.6646 2.1224ZM20.0248 1.90823L20.2672 2.34557L20.2672 2.34557L20.0248 1.90823ZM20.8117 1.506L21.03 1.95582L21.03 1.95582L20.8117 1.506ZM20.933 1.44722L21.1509 1.89725L21.1509 1.89725L20.933 1.44722ZM21.4927 1.1698L21.7236 1.61331L21.7236 1.61331L21.4927 1.1698ZM24.995 4.76598L25.2952 4.36618L24.995 4.76598ZM28.551 6.4934L28.7108 6.01965L28.551 6.4934ZM30.0411 6.87736L30.1449 6.38826L30.1449 6.38826L30.0411 6.87736ZM30.3859 6.94957L30.4877 6.46005L30.4877 6.46005L30.3859 6.94957ZM31.7708 7.26187L31.6448 7.74575L31.6448 7.74575L31.7708 7.26187ZM31.0151 10.1651L30.8891 10.649L30.8891 10.649L31.0151 10.1651ZM29.8185 9.89591L29.7165 10.3854L29.7165 10.3854L29.8185 9.89591ZM29.4181 9.81196L29.3143 10.3011L29.3143 10.3011L29.4181 9.81196ZM27.5919 9.33595L27.7517 8.86219L27.7517 8.86219L27.5919 9.33595ZM23.1933 7.16475L22.893 7.56455L22.893 7.56455L23.1933 7.16475ZM32.8801 9.05305L32.389 8.95913L32.389 8.95913L32.8801 9.05305ZM31.6886 7.29798L31.7825 6.80688L31.7825 6.80688L31.6886 7.29798ZM32.0319 11.1715L32.4651 11.4211L32.4651 11.4211L32.0319 11.1715ZM31.6017 11.8837L32.0269 12.1467L32.0269 12.1467L31.6017 11.8837ZM31.5336 11.9939L31.1081 11.7313L31.1081 11.7313L31.5336 11.9939ZM31.1127 12.7071L30.6732 12.4687L30.6732 12.4687L31.1127 12.7071ZM30.861 13.2544L31.331 13.4248L31.331 13.4248L30.861 13.2544ZM30.786 13.5248L31.2811 13.5943L31.2812 13.5943L30.786 13.5248ZM30.7512 13.9493L31.2456 14.0239L31.2456 14.0239L30.7512 13.9493ZM30.707 14.2011L31.1981 14.2948L31.1981 14.2948L30.707 14.2011ZM30.7033 14.2203L31.1945 14.3136L31.1945 14.3136L30.7033 14.2203ZM30.6739 14.3917L30.632 14.8899L30.6331 14.89L30.6739 14.3917ZM30.6099 15.4952L31.1075 15.5443L31.1075 15.5443L30.6099 15.4952ZM30.6021 15.5654L30.1061 15.503L30.106 15.5033L30.6021 15.5654ZM30.6019 15.567L30.1058 15.5049L30.1058 15.505L30.6019 15.567ZM30.5754 15.7214L31.0635 15.8299L31.0635 15.8299L30.5754 15.7214ZM30.546 15.8334L30.0675 15.6884L30.0675 15.6884L30.546 15.8334ZM30.436 16.101L29.994 15.8672L29.994 15.8672L30.436 16.101ZM30.2156 16.4135L30.5842 16.7513L30.5842 16.7513L30.2156 16.4135ZM29.4252 16.8667L29.5304 17.3555L29.5304 17.3555L29.4252 16.8667ZM28.2102 16.601L28.5099 16.2008L28.5099 16.2008L28.2102 16.601ZM27.7952 16.1239L27.3573 16.3652L27.3573 16.3652L27.7952 16.1239ZM27.6475 15.7383L28.1347 15.6259L28.1347 15.6259L27.6475 15.7383ZM27.647 15.7364L28.1342 15.624L28.1342 15.6238L27.647 15.7364ZM27.6212 15.5941L27.1256 15.66L27.1256 15.66L27.6212 15.5941ZM27.6099 15.4745L28.1091 15.4459L28.1091 15.4459L27.6099 15.4745ZM27.6107 15.1211L28.1105 15.1346L28.1105 15.1346L27.6107 15.1211ZM27.6752 13.4619L27.1756 13.4402L27.1756 13.4402L27.6752 13.4619ZM27.879 12.769L28.3103 13.022L28.3485 12.9567L28.3658 12.8831L27.879 12.769ZM28.0407 12.2318L27.5706 12.0613L27.5706 12.0613L28.0407 12.2318ZM28.4755 11.2769L28.915 11.5153L28.915 11.5153L28.4755 11.2769ZM28.9808 10.4181L29.4062 10.6807L29.4062 10.6807L28.9808 10.4181ZM29.0548 10.2984L28.6295 10.0354L28.6295 10.0354L29.0548 10.2984ZM29.4325 9.6738L29.8657 9.92341L29.8657 9.92341L29.4325 9.6738ZM29.9335 8.4895L29.4424 8.39557L29.4424 8.39557L29.9335 8.4895ZM27.6247 15.1981L28.1224 15.2462L27.1285 15.1363L27.6247 15.1981ZM27.6245 15.2005L27.1269 15.1514L27.1269 15.1514L27.6245 15.2005ZM7.36129 10.9305L7.23675 11.4148L7.23675 11.4148L7.36129 10.9305ZM5.53495 12.0096L6.0192 12.1342L6.0192 12.1342L5.53495 12.0096ZM9.00447 11.7805L9.29899 11.3764L9.29899 11.3764L9.00447 11.7805ZM9.01815 11.7905L8.7237 12.1946L8.7237 12.1946L9.01815 11.7905ZM9.2899 11.9494L9.53103 11.5114L9.53103 11.5114L9.2899 11.9494ZM9.46268 12.0448L9.70527 11.6076L9.70527 11.6076L9.46268 12.0448ZM9.86497 12.285L10.1404 11.8677L10.1404 11.8677L9.86497 12.285ZM10.3575 12.6849L10.716 12.3364L10.716 12.3364L10.3575 12.6849ZM10.6973 12.9547L10.9965 12.5541L10.9965 12.5541L10.6973 12.9547ZM10.708 12.9627L11.0072 12.562L11.0072 12.562L10.708 12.9627ZM11.4764 13.6671L11.8638 13.351L11.8638 13.351L11.4764 13.6671ZM12.8467 17.3404L13.3467 17.3403L13.3467 17.3403L12.8467 17.3404ZM12.6224 21.2146L12.1292 21.1324L12.1292 21.1324L12.6224 21.2146ZM12.0184 22.903L11.5741 22.6738L11.5741 22.6738L12.0184 22.903ZM11.8169 23.2858L12.258 23.5211L12.258 23.5211L11.8169 23.2858ZM11.4789 23.9801L11.0143 23.7955L11.0143 23.7955L11.4789 23.9801ZM11.4285 24.1083L10.9629 23.9259L10.9629 23.9259L11.4285 24.1083ZM11.1202 24.7702L11.5533 25.0201L11.5533 25.0201L11.1202 24.7702ZM10.9604 25.0401L11.3898 25.2964L11.3898 25.2964L10.9604 25.0401ZM10.8407 25.2411L11.2706 25.4964L11.2706 25.4964L10.8407 25.2411ZM10.7497 25.3949L10.3191 25.1407L9.97368 25.7258L10.6351 25.8815L10.7497 25.3949ZM11.4074 25.5774L11.2532 26.053L11.3092 26.0712L11.368 26.0758L11.4074 25.5774ZM11.4585 25.5809L11.4265 26.0799L11.4266 26.0799L11.4585 25.5809ZM11.5697 25.5884L11.6053 25.0897L11.6053 25.0897L11.5697 25.5884ZM11.988 25.6406L12.0847 25.1501L12.0847 25.1501L11.988 25.6406ZM12.6304 25.8753L12.3817 26.3091L12.4207 26.3314L12.4631 26.3465L12.6304 25.8753ZM12.6668 25.8875L12.5162 26.3642L12.5162 26.3642L12.6668 25.8875ZM12.968 25.9657L13.0796 25.4783L13.0796 25.4783L12.968 25.9657ZM13.2467 26.0266L13.3511 25.5376L13.3511 25.5376L13.2467 26.0266ZM13.385 26.0562L13.2794 26.5449L13.2794 26.5449L13.385 26.0562ZM13.8491 26.1683L13.7117 26.6491L13.7117 26.6491L13.8491 26.1683ZM15.8292 26.7626L15.6823 27.2405L15.6823 27.2405L15.8292 26.7626ZM15.9041 26.7856L15.7571 27.2635L15.7571 27.2635L15.9041 26.7856ZM16.3699 26.9286L16.2237 27.4067L16.8888 27.6101L16.8697 26.9149L16.3699 26.9286ZM16.3891 25.7279L16.8878 25.7638L16.8878 25.7638L16.3891 25.7279ZM17.6018 23.6855L17.2988 23.2877L17.2988 23.2877L17.6018 23.6855ZM18.2624 23.241L17.9977 22.8168L17.9977 22.8168L18.2624 23.241ZM18.278 23.2312L18.5427 23.6554L18.5427 23.6554L18.278 23.2312ZM18.7225 22.9418L18.4281 22.5377L18.4281 22.5377L18.7225 22.9418ZM21.0539 22.4435L21.1461 21.952L21.1461 21.952L21.0539 22.4435ZM22.8097 23.1571L23.0614 22.7251L23.0614 22.7251L22.8097 23.1571ZM23.7361 23.7376L23.4644 24.1574L23.4645 24.1574L23.7361 23.7376ZM24.1255 23.9871L23.8606 24.4112L23.8607 24.4112L24.1255 23.9871ZM24.7238 24.3231L24.516 24.7779L24.6394 24.8343L24.7744 24.8206L24.7238 24.3231ZM24.7818 24.3171L24.835 24.8142L24.835 24.8142L24.7818 24.3171ZM25.5672 24.2188L25.4991 23.7234L25.4991 23.7234L25.5672 24.2188ZM26.1783 24.1295L26.2553 24.6235L26.3956 24.6017L26.5035 24.5093L26.1783 24.1295ZM26.4639 23.9316L26.2202 23.495L26.2202 23.495L26.4639 23.9316ZM26.7244 23.8078L26.9134 24.2707L26.9134 24.2707L26.7244 23.8078ZM28.1006 23.4427L28.0117 22.9507L28.0117 22.9507L28.1006 23.4427ZM28.135 23.4365L28.0461 22.9445L28.0461 22.9445L28.135 23.4365ZM28.9845 23.2465L29.1467 23.7195L29.1467 23.7195L28.9845 23.2465ZM29.7024 23.0194L29.5575 22.5408L29.5575 22.5408L29.7024 23.0194ZM29.7134 23.0161L29.8583 23.4946L29.8583 23.4946L29.7134 23.0161ZM30.3591 22.8128L30.1979 22.3395L30.1979 22.3395L30.3591 22.8128ZM30.9524 22.5738L31.1756 23.0212L32.1679 22.5263L31.14 22.1103L30.9524 22.5738ZM29.8405 22.0437L29.5905 22.4767L29.5905 22.4767L29.8405 22.0437ZM28.5464 20.883L28.1234 21.1497L28.1234 21.1497L28.5464 20.883ZM27.6174 17.4522L27.1178 17.4718L27.1178 17.4718L27.6174 17.4522ZM27.6282 15.9101L27.1285 15.8918L27.1285 15.8918L27.6282 15.9101ZM27.6396 15.6113L27.1399 15.5919L27.1399 15.5919L27.6396 15.6113ZM30.6362 15.7569L30.1366 15.7374L30.1366 15.7374L30.6362 15.7569ZM30.6262 16.0199L30.1265 16.0016L30.1265 16.0016L30.6262 16.0199ZM30.6151 17.3348L31.1148 17.3153L31.1148 17.3153L30.6151 17.3348ZM31.0691 19.2589L30.6426 19.5199L30.6881 19.5943L30.7562 19.6488L31.0691 19.2589ZM31.3403 19.4455L31.0903 19.8785L31.0903 19.8785L31.3403 19.4455ZM32.324 19.8893L32.1465 20.3567L32.1465 20.3567L32.324 19.8893ZM33.5763 20.3231L33.4197 20.7979L33.4197 20.7979L33.5763 20.3231ZM33.6231 20.3385L33.4665 20.8133L33.4665 20.8133L33.6231 20.3385ZM34.7764 20.7418L34.592 21.2065L34.592 21.2065L34.7764 20.7418ZM34.9916 20.8272L35.3076 20.4397L35.2478 20.3909L35.176 20.3624L34.9916 20.8272ZM35.1711 20.9735L35.4871 20.586L35.4871 20.586L35.1711 20.9735ZM35.9711 22.3616L36.4694 22.3208L36.4694 22.3208L35.9711 22.3616ZM35.0317 24.02L34.8003 23.5768L34.8003 23.5768L35.0317 24.02ZM34.0603 24.2631L34.0454 23.7633L34.0453 23.7633L34.0603 24.2631ZM33.9139 24.2631L33.9288 23.7633L33.7996 23.7595L33.6847 23.8188L33.9139 24.2631ZM32.9946 24.8341L32.6995 24.4304L32.6995 24.4304L32.9946 24.8341ZM31.3263 25.6526L31.4875 26.1259L31.4875 26.1259L31.3263 25.6526ZM30.5942 25.8839L30.4493 25.4053L30.4493 25.4053L30.5942 25.8839ZM30.5828 25.8873L30.7277 26.3659L30.7277 26.3659L30.5828 25.8873ZM29.9576 26.0843L30.1198 26.5573L30.1198 26.5573L29.9576 26.0843ZM28.722 26.3792L28.8098 26.8714L28.8098 26.8714L28.722 26.3792ZM28.6338 26.395L28.7226 26.887L28.7226 26.887L28.6338 26.395ZM28.1531 26.4927L28.0336 26.0071L27.8988 26.0403L27.8004 26.1383L28.1531 26.4927ZM28.0758 26.5651L28.4069 26.9398L28.4069 26.9398L28.0758 26.5651ZM27.7882 26.7764L27.5256 26.3509L27.5256 26.3509L27.7882 26.7764ZM27.4544 26.9309L27.3013 26.4549L27.3012 26.4549L27.4544 26.9309ZM27.4515 26.9318L27.6069 27.4071L27.607 27.4071L27.4515 26.9318ZM27.3267 26.9678L27.4495 27.4525L27.4495 27.4525L27.3267 26.9678ZM27.166 27.0036L27.2638 27.4939L27.2638 27.4939L27.166 27.0036ZM26.8352 27.0625L26.9164 27.5559L26.9164 27.5559L26.8352 27.0625ZM25.9763 27.1907L26.0445 27.6861L26.0445 27.6861L25.9763 27.1907ZM25.1009 27.3001L25.0477 26.8029L25.0477 26.8029L25.1009 27.3001ZM24.7436 27.3322L24.7115 26.8333L24.7115 26.8333L24.7436 27.3322ZM24.5583 27.3392L24.5563 26.8392L24.5557 26.8392L24.5583 27.3392ZM24.557 27.3393L24.5461 26.8394L24.546 26.8394L24.557 27.3393ZM24.1063 27.2829L23.9749 27.7654L23.9749 27.7654L24.1063 27.2829ZM22.5365 26.5318L22.8013 26.1076L22.8013 26.1076L22.5365 26.5318ZM21.998 26.1868L22.2707 25.7677L22.2707 25.7677L21.998 26.1868ZM21.2993 25.7492L21.5511 25.3172L21.551 25.3172L21.2993 25.7492ZM20.5007 25.392L20.5929 24.9006L20.5929 24.9006L20.5007 25.392ZM20.462 25.3861L20.516 24.8891L20.3256 24.8684L20.1701 24.9802L20.462 25.3861ZM19.894 25.759L19.6296 25.3346L19.6296 25.3346L19.894 25.759ZM19.8508 25.786L20.1155 26.2101L20.1155 26.2101L19.8508 25.786ZM19.4198 26.0718L19.1168 25.6741L19.1168 25.6741L19.4198 26.0718ZM19.3706 26.1107L19.0526 25.7249L18.8835 25.8643L18.8714 26.0832L19.3706 26.1107ZM19.3695 26.8143L18.8699 26.8329L18.8699 26.8329L19.3695 26.8143ZM19.3852 27.5997L18.8852 27.5999L18.8852 27.615L18.8862 27.63L19.3852 27.5997ZM19.3889 27.6518L18.8904 27.6905L18.8904 27.6905L19.3889 27.6518ZM19.3924 27.6959L18.8941 27.7367L18.8941 27.7367L19.3924 27.6959ZM19.4054 27.8565L19.9039 27.819L19.9039 27.819L19.4054 27.8565ZM19.4125 28.5287L18.9141 28.4894L18.9141 28.4894L19.4125 28.5287ZM18.9635 29.7152L19.3479 30.0349L19.3479 30.0349L18.9635 29.7152ZM18.035 30.2946L17.9176 29.8086L17.9176 29.8086L18.035 30.2946ZM17.0823 30.2685L17.2182 29.7874L17.2182 29.7874L17.0823 30.2685ZM15.0224 29.6531L14.8755 30.1311L14.8755 30.1311L15.0224 29.6531ZM14.9575 29.6332L15.1045 29.1553L15.1045 29.1553L14.9575 29.6332ZM13.0249 29.0529L12.8875 29.5336L12.8875 29.5336L13.0249 29.0529ZM12.7078 28.9794L12.6048 29.4686L12.6048 29.4686L12.7078 28.9794ZM12.2989 28.8901L12.1873 29.3775L12.1874 29.3775L12.2989 28.8901ZM12.2941 28.889L12.4057 28.4016L12.4056 28.4016L12.2941 28.889ZM11.3282 28.5788L11.5429 28.1273L11.4568 28.0864L11.3617 28.08L11.3282 28.5788ZM11.3017 28.5771L11.2695 29.0761L11.2695 29.0761L11.3017 28.5771ZM11.2385 28.5729L11.2043 29.0717L11.2043 29.0717L11.2385 28.5729ZM11.0678 28.5586L11.1193 28.0613L11.1193 28.0613L11.0678 28.5586ZM10.5292 28.4467L10.3693 28.9205L10.3693 28.9205L10.5292 28.4467ZM9.5853 28.2202L9.66686 27.7269L9.66686 27.7269L9.5853 28.2202ZM9.01333 28.0131L9.26153 27.579L9.26152 27.579L9.01333 28.0131ZM9.00813 28.0101L9.2528 27.5741L9.25275 27.5741L9.00813 28.0101ZM8.74978 27.847L8.46482 28.2579L8.46482 28.2579L8.74978 27.847ZM8.26456 27.462L7.92977 27.8333L7.92977 27.8333L8.26456 27.462ZM7.74649 26.8796L7.32964 27.1557L7.32964 27.1557L7.74649 26.8796ZM7.46487 26.2011L7.95641 26.1096L7.95641 26.1096L7.46487 26.2011ZM7.44024 25.8163L7.93957 25.8423L7.94209 25.7938L7.93524 25.7458L7.44024 25.8163ZM7.42672 25.6786L7.92599 25.6515L7.92599 25.6515L7.42672 25.6786ZM7.45995 25.2555L7.94905 25.3593L7.94905 25.3593L7.45995 25.2555ZM7.55525 24.9511L8.0167 25.1437L8.0167 25.1437L7.55525 24.9511ZM7.6635 24.7329L8.09675 24.9825L7.6635 24.7329ZM8.26115 23.7095L7.83122 23.4542L7.83122 23.4542L8.26115 23.7095ZM8.40362 23.4704L8.83287 23.7267L8.83288 23.7267L8.40362 23.4704ZM8.52147 23.2713L8.95458 23.5211L8.95458 23.5211L8.52147 23.2713ZM8.54486 23.2315L8.98124 23.4756L8.98124 23.4756L8.54486 23.2315ZM8.69083 22.8727L9.15551 23.0572L9.15551 23.0572L8.69083 22.8727ZM9.2325 21.7541L8.79149 21.5185L8.79149 21.5185L9.2325 21.7541ZM9.35216 21.5279L9.79654 21.7571L9.79654 21.7571L9.35216 21.5279ZM9.66318 20.7214L9.16998 20.6392L9.16998 20.6392L9.66318 20.7214ZM9.84671 17.2504L9.34671 17.2504L9.34671 17.2504L9.84671 17.2504ZM9.15217 15.5639L8.7648 15.88L8.7648 15.88L9.15217 15.5639ZM8.9132 15.3665L9.21234 14.9659L9.21234 14.9659L8.9132 15.3665ZM8.8627 15.3291L9.15981 14.927L9.15981 14.927L8.8627 15.3291ZM8.23205 14.8022L8.5866 14.4496L8.55576 14.4186L8.51999 14.3934L8.23205 14.8022ZM8.21257 14.7889L7.93717 15.2062L7.93717 15.2062L8.21257 14.7889ZM8.00715 14.668L8.24974 14.2308L8.24974 14.2308L8.00715 14.668ZM7.91716 14.6186L8.15753 14.1801L8.15753 14.1801L7.91716 14.6186ZM7.67507 14.4842L7.92264 14.0498L7.92264 14.0498L7.67507 14.4842ZM7.25143 14.2151L7.54589 13.811L7.54589 13.811L7.25143 14.2151ZM6.84958 13.9436L6.59865 14.3761L6.59865 14.3761L6.84958 13.9436ZM6.61408 13.836L6.73861 13.3517L6.73861 13.3517L6.61408 13.836ZM8.32097 27.0168L8.54506 26.5699L8.54432 26.5695L8.32097 27.0168ZM8.32065 27.0167L8.54399 26.5693L8.09284 27.4618L8.32065 27.0167ZM19.3018 26.1744L19.3389 26.6731L19.3392 26.673L19.3018 26.1744ZM19.3058 26.1698L19.7007 26.4764L18.9369 25.8322L19.3058 26.1698ZM11.3714 25.574L11.3142 26.0707L11.4494 25.0801L11.3714 25.574ZM9.66545 24.335L9.8914 23.8889L9.88952 23.888L9.66545 24.335ZM9.68176 24.3432L9.45582 24.7893L9.91781 23.9025L9.68176 24.3432ZM17.8664 1.83174C16.7619 1.83174 15.8664 2.72717 15.8664 3.83174H16.8664C16.8664 3.27946 17.3141 2.83174 17.8664 2.83174V1.83174ZM19.8033 2.95189C19.2986 2.03279 18.3913 1.83174 17.8664 1.83174V2.83174C18.1892 2.83174 18.6641 2.95501 18.9267 3.43323L19.8033 2.95189ZM20.0253 4.49727C20.0615 4.31244 20.1839 3.64501 19.8033 2.95189L18.9267 3.43323C19.1313 3.8057 19.0694 4.17497 19.044 4.30495L20.0253 4.49727ZM19.8526 5.07358C19.8889 4.98011 19.9742 4.75822 20.0253 4.49727L19.044 4.30495C19.0107 4.47447 18.9529 4.62775 18.9203 4.7119L19.8526 5.07358ZM18.8594 4.86789C18.8586 4.87075 18.8571 4.87575 18.8554 4.88192C18.8543 4.88583 18.8503 4.90036 18.8467 4.91909C18.8451 4.92681 18.8407 4.94995 18.8385 4.97993C18.8375 4.99423 18.8359 5.02475 18.8396 5.06321C18.8417 5.08546 18.8511 5.19089 18.9252 5.29879C18.9688 5.36222 19.042 5.43652 19.1533 5.48056C19.2654 5.52495 19.3718 5.52104 19.4509 5.50258C19.5844 5.47145 19.6645 5.39442 19.681 5.37881C19.7299 5.33257 19.7578 5.28637 19.7607 5.2818C19.7762 5.25706 19.7863 5.23597 19.7878 5.23292C19.7914 5.22544 19.7943 5.21916 19.7959 5.21552C19.7992 5.20799 19.8022 5.20085 19.8044 5.19551C19.8131 5.17475 19.8276 5.1379 19.8526 5.07359L18.9203 4.7119C18.895 4.77705 18.8843 4.80385 18.8806 4.81264C18.8798 4.81468 18.8806 4.81279 18.8823 4.80888C18.8831 4.80705 18.8853 4.80217 18.8884 4.79574C18.8894 4.79374 18.8991 4.77335 18.9144 4.74903C18.9172 4.74467 18.9449 4.69862 18.9937 4.65244C19.0102 4.63687 19.0903 4.55986 19.2237 4.52874C19.3028 4.51028 19.4092 4.50637 19.5213 4.55076C19.6326 4.5948 19.7058 4.66909 19.7494 4.73251C19.8235 4.84038 19.8329 4.94578 19.835 4.96797C19.8387 5.00639 19.837 5.03685 19.836 5.05107C19.8339 5.0809 19.8295 5.10384 19.828 5.11132C19.8244 5.12957 19.8206 5.14347 19.8197 5.14664C19.8182 5.15208 19.817 5.15624 19.8164 5.15822L18.8594 4.86789ZM17.2586 9.20681C18.0743 8.24315 19.2878 6.80521 19.814 5.16586L18.8618 4.86025C18.406 6.28048 17.3315 7.57286 16.4953 8.56072L17.2586 9.20681ZM11.5561 13.5729C13.8798 12.4712 15.7522 10.9863 17.2586 9.20681L16.4953 8.56072C15.079 10.2338 13.3201 11.6299 11.1277 12.6693L11.5561 13.5729ZM6.50841 14.4413C8.05874 14.4413 9.71349 14.4465 11.5561 13.5729L11.1277 12.6693C9.51037 13.4361 8.06484 13.4413 6.50841 13.4413L6.50841 14.4413ZM6.5 14.4413H6.50841V13.4413H6.5V14.4413ZM4.5 12.4413C4.5 13.5459 5.39543 14.4413 6.5 14.4413V13.4413C5.94772 13.4413 5.5 12.9936 5.5 12.4413H4.5ZM6.5 10.4413C5.39543 10.4413 4.5 11.3367 4.5 12.4413H5.5C5.5 11.889 5.94772 11.4413 6.5 11.4413V10.4413ZM9.84247 9.95856C8.90198 10.4044 8.08866 10.4413 6.5 10.4413V11.4413C8.07702 11.4413 9.10307 11.4158 10.2709 10.8621L9.84247 9.95856ZM14.2055 6.62243C13.0596 7.97621 11.6409 9.1059 9.84247 9.95856L10.2709 10.8621C12.2006 9.94723 13.7327 8.72874 14.9688 7.26852L14.2055 6.62243ZM15.9588 4.07659C15.6828 4.80672 15.0541 5.62006 14.2055 6.62243L14.9688 7.26852C15.7992 6.28752 16.5475 5.34739 16.8942 4.43011L15.9588 4.07659ZM15.8664 3.83174C15.8664 4.02609 15.8943 4.21479 15.9466 4.39363L16.9064 4.11306C16.8805 4.02442 16.8664 3.93015 16.8664 3.83174H15.8664ZM23.1088 4.27432C24.0886 3.76427 24.4694 2.55654 23.9593 1.57678L23.0723 2.03855C23.3273 2.52842 23.137 3.13229 22.6471 3.38731L23.1088 4.27432ZM22.4484 4.60217C22.6502 4.5045 22.8826 4.39209 23.1088 4.27432L22.6471 3.38731C22.4359 3.49723 22.2167 3.60338 22.0128 3.70203L22.4484 4.60217ZM22.3398 4.65476C22.375 4.6377 22.4112 4.6202 22.4484 4.60217L22.0128 3.70203C21.9757 3.72001 21.939 3.73776 21.9032 3.75512L22.3398 4.65476ZM21.7213 4.96958C21.902 4.86944 22.1007 4.77083 22.3398 4.65476L21.9032 3.75512C21.6629 3.87174 21.443 3.98052 21.2366 4.09491L21.7213 4.96958ZM21.5001 5.10254C21.6089 5.03536 21.6656 5.00046 21.7213 4.96958L21.2366 4.09491C21.1559 4.13964 21.0772 4.18838 20.9746 4.25175L21.5001 5.10254ZM21.4702 5.12099C21.4805 5.11462 21.4905 5.10846 21.5001 5.10254L20.9746 4.25176C20.965 4.25769 20.9551 4.26378 20.9449 4.27007L21.4702 5.12099ZM21.0114 5.38655C21.1957 5.29018 21.3601 5.18896 21.4702 5.12098L20.9449 4.27008C20.8352 4.33781 20.6976 4.42217 20.548 4.50037L21.0114 5.38655ZM19.3688 5.83105C20.0703 5.81338 20.6222 5.59005 21.0114 5.38655L20.548 4.50037C20.2388 4.66204 19.8401 4.81886 19.3436 4.83136L19.3688 5.83105ZM18.2979 5.83413C18.6335 5.83688 19.0124 5.84003 19.3688 5.83105L19.3436 4.83136C19.0068 4.83985 18.6449 4.83694 18.3061 4.83416L18.2979 5.83413ZM17.8661 5.83168C17.9984 5.83168 18.1433 5.83287 18.2979 5.83413L18.3061 4.83416C18.1525 4.83291 18.0033 4.83168 17.8661 4.83168V5.83168ZM15.8661 3.83168C15.8661 4.93625 16.7615 5.83168 17.8661 5.83168V4.83168C17.3138 4.83168 16.8661 4.38397 16.8661 3.83168H15.8661ZM17.8661 1.83168C16.7615 1.83168 15.8661 2.72711 15.8661 3.83168H16.8661C16.8661 3.2794 17.3138 2.83168 17.8661 2.83168V1.83168ZM18.4006 1.83464C18.2342 1.83321 18.0577 1.83168 17.8661 1.83168V2.83168C18.0528 2.83168 18.2251 2.83316 18.392 2.8346L18.4006 1.83464ZM19.2678 1.83232C18.9794 1.83958 18.7077 1.83729 18.4006 1.83464L18.392 2.8346C18.6967 2.83723 18.985 2.83976 19.293 2.83201L19.2678 1.83232ZM19.1768 1.84301L19.1754 1.84332L19.3854 2.82101L19.3869 2.8207L19.1768 1.84301ZM19.1553 1.84809L19.1488 1.84989L19.4149 2.81382L19.4214 2.81202L19.1553 1.84809ZM19.158 1.84183C19.1389 1.85181 19.1289 1.85622 19.1264 1.85726C19.1242 1.85821 19.1302 1.85556 19.1428 1.85171L19.4339 2.8084C19.4849 2.79288 19.5448 2.76802 19.6213 2.72801L19.158 1.84183ZM19.369 1.71735C19.2585 1.78554 19.2025 1.81856 19.158 1.84183L19.6213 2.72801C19.7011 2.6863 19.7847 2.63593 19.8943 2.56826L19.369 1.71735ZM19.4015 1.69723C19.3899 1.70439 19.3792 1.71106 19.369 1.71735L19.8943 2.56826C19.905 2.56164 19.9163 2.55468 19.9277 2.54757L19.4015 1.69723ZM19.7824 1.4709C19.6357 1.55224 19.4958 1.63887 19.4015 1.69723L19.9277 2.54758C20.0239 2.48807 20.1444 2.41362 20.2672 2.34557L19.7824 1.4709ZM20.5934 1.05618C20.349 1.17476 20.0657 1.3139 19.7824 1.4709L20.2672 2.34557C20.5249 2.20276 20.7871 2.07372 21.03 1.95582L20.5934 1.05618ZM20.7151 0.997197C20.6756 1.01631 20.635 1.03596 20.5934 1.05618L21.03 1.95582C21.0711 1.93584 21.1113 1.91639 21.1509 1.89725L20.7151 0.997197ZM21.2618 0.726302C21.0931 0.814144 20.9197 0.898114 20.7151 0.997198L21.1509 1.89725C21.3528 1.79945 21.5396 1.70906 21.7236 1.61331L21.2618 0.726302ZM23.9593 1.57678C23.4493 0.597027 22.2415 0.216253 21.2618 0.726302L21.7236 1.61331C22.2134 1.35828 22.8173 1.54867 23.0723 2.03855L23.9593 1.57678ZM24.1861 2.7667C24.1861 1.66213 23.2907 0.766701 22.1861 0.766701V1.7667C22.7384 1.7667 23.1861 2.21442 23.1861 2.7667H24.1861ZM25.2952 4.36618C24.4108 3.70189 24.1861 3.16893 24.1861 2.7667H23.1861C23.1861 3.61386 23.6855 4.40779 24.6947 5.16577L25.2952 4.36618ZM28.7108 6.01965C27.4131 5.58177 26.1733 5.02568 25.2952 4.36618L24.6947 5.16577C25.697 5.91859 27.0527 6.51554 28.3911 6.96716L28.7108 6.01965ZM30.1449 6.38826C29.5989 6.27235 29.1352 6.16283 28.7108 6.01965L28.3911 6.96716C28.8735 7.12993 29.3847 7.24917 29.9372 7.36646L30.1449 6.38826ZM30.4877 6.46005C30.3691 6.43537 30.2548 6.41159 30.1449 6.38826L29.9372 7.36646C30.0495 7.39029 30.1658 7.41449 30.284 7.43909L30.4877 6.46005ZM31.8967 6.77799C31.4198 6.65386 30.9255 6.55113 30.4877 6.46005L30.284 7.43908C30.7259 7.53101 31.1959 7.62889 31.6448 7.74575L31.8967 6.77799ZM33.3284 9.2173C33.6067 8.14835 32.9657 7.05624 31.8967 6.77799L31.6448 7.74575C32.1793 7.88487 32.4998 8.43093 32.3607 8.9654L33.3284 9.2173ZM30.8891 10.649C31.9581 10.9272 33.0502 10.2863 33.3284 9.2173L32.3607 8.9654C32.2216 9.49988 31.6755 9.82037 31.141 9.68125L30.8891 10.649ZM29.7165 10.3854C30.1463 10.4749 30.5192 10.5527 30.8891 10.649L31.141 9.68125C30.7431 9.57767 30.3457 9.49501 29.9204 9.40642L29.7165 10.3854ZM29.3143 10.3011C29.4534 10.3306 29.5874 10.3585 29.7165 10.3854L29.9204 9.40642C29.7911 9.37948 29.6589 9.35195 29.5219 9.32286L29.3143 10.3011ZM27.432 9.80971C28.0881 10.0311 28.7413 10.1794 29.3143 10.3011L29.5219 9.32286C28.9559 9.2027 28.35 9.06405 27.7517 8.86219L27.432 9.80971ZM22.893 7.56455C24.2678 8.59704 25.9705 9.31657 27.432 9.80971L27.7517 8.86219C26.3313 8.38293 24.7442 7.70426 23.4936 6.76496L22.893 7.56455ZM20.1861 2.7667C20.1861 4.96426 21.5283 6.53951 22.893 7.56455L23.4936 6.76496C22.2463 5.82814 21.1861 4.51325 21.1861 2.7667H20.1861ZM22.1861 0.766701C21.0816 0.766701 20.1861 1.66213 20.1861 2.7667H21.1861C21.1861 2.21442 21.6339 1.7667 22.1861 1.7667V0.766701ZM33.3712 9.14698C33.5787 8.06208 32.8674 7.01438 31.7825 6.80688L31.5946 7.78908C32.1371 7.89283 32.4927 8.41668 32.389 8.95913L33.3712 9.14698ZM32.4651 11.4211C32.8075 10.8268 33.1969 10.0581 33.3712 9.14698L32.389 8.95913C32.2459 9.70727 31.9213 10.3618 31.5986 10.9219L32.4651 11.4211ZM32.0269 12.1467C32.163 11.9268 32.3185 11.6756 32.4651 11.4211L31.5986 10.9219C31.4611 11.1606 31.3139 11.3986 31.1765 11.6206L32.0269 12.1467ZM31.959 12.2565C31.9811 12.2208 32.0037 12.1842 32.0269 12.1467L31.1765 11.6206C31.1534 11.658 31.1305 11.695 31.1081 11.7313L31.959 12.2565ZM31.5522 12.9455C31.6668 12.7341 31.7995 12.5149 31.959 12.2565L31.1081 11.7313C30.9481 11.9905 30.8024 12.2305 30.6732 12.4687L31.5522 12.9455ZM31.331 13.4248C31.3847 13.2768 31.4647 13.1068 31.5522 12.9455L30.6732 12.4687C30.5701 12.6587 30.4665 12.8754 30.3909 13.084L31.331 13.4248ZM31.2812 13.5943C31.2813 13.5935 31.2813 13.5928 31.2819 13.5897C31.2826 13.5858 31.2843 13.5774 31.2875 13.5643C31.2939 13.5381 31.3067 13.492 31.331 13.4248L30.3909 13.084C30.3177 13.286 30.2976 13.4072 30.2909 13.4553L31.2812 13.5943ZM30.2855 13.5269C30.2855 13.5288 30.2855 13.5342 30.2857 13.5409C30.2857 13.5414 30.2861 13.5662 30.2903 13.5966C30.2916 13.6059 30.2941 13.6224 30.2989 13.6427C30.3025 13.6577 30.3133 13.7021 30.3397 13.754C30.3506 13.7755 30.4436 13.967 30.6832 14.0171C30.9643 14.0759 31.1355 13.8883 31.1676 13.8503C31.2146 13.7946 31.2376 13.7419 31.2441 13.727C31.2538 13.7048 31.2598 13.6864 31.2628 13.6767C31.269 13.6569 31.2726 13.641 31.2739 13.6351C31.2768 13.6217 31.2786 13.611 31.279 13.6086C31.2797 13.6045 31.2801 13.6012 31.2804 13.5998C31.2808 13.597 31.2811 13.5943 31.2811 13.5943L30.2909 13.4553C30.2884 13.473 30.2919 13.4444 30.2973 13.42C30.2986 13.4142 30.3021 13.3984 30.3083 13.3787C30.3113 13.3689 30.3173 13.3506 30.327 13.3284C30.3335 13.3135 30.3565 13.2608 30.4035 13.2052C30.4356 13.1671 30.6068 12.9795 30.8878 13.0383C31.1275 13.0884 31.2205 13.2799 31.2314 13.3014C31.2577 13.3533 31.2686 13.3977 31.2721 13.4127C31.2769 13.433 31.2794 13.4495 31.2807 13.4587C31.2849 13.489 31.2853 13.5136 31.2853 13.5138C31.2855 13.5203 31.2855 13.5253 31.2855 13.5269H30.2855ZM31.2456 14.0239C31.2635 13.9054 31.2855 13.7294 31.2855 13.5269H30.2855C30.2855 13.6596 30.271 13.781 30.2568 13.8747L31.2456 14.0239ZM31.1981 14.2948C31.21 14.2324 31.2298 14.1288 31.2456 14.0239L30.2568 13.8747C30.2443 13.9578 30.228 14.0434 30.2158 14.1075L31.1981 14.2948ZM31.1945 14.3136C31.1956 14.3078 31.1968 14.3016 31.1981 14.2948L30.2158 14.1075C30.2145 14.1142 30.2133 14.1208 30.2121 14.127L31.1945 14.3136ZM30.6331 14.89C30.8984 14.9117 31.0442 14.7296 31.0666 14.7012C31.1072 14.6496 31.1277 14.6022 31.134 14.5874C31.1495 14.551 31.157 14.5207 31.1586 14.5145C31.1635 14.495 31.1662 14.4792 31.1666 14.477C31.1681 14.4682 31.1691 14.4607 31.1692 14.4604C31.1694 14.4585 31.1697 14.4565 31.1698 14.4559C31.1699 14.4549 31.17 14.4542 31.1702 14.4533C31.1706 14.4504 31.1714 14.4446 31.1729 14.435C31.1761 14.4151 31.1824 14.3774 31.1945 14.3136L30.2121 14.127C30.1985 14.1987 30.1903 14.2468 30.1852 14.2788C30.1826 14.295 30.181 14.3066 30.1798 14.3147C30.1796 14.3165 30.1793 14.3181 30.1792 14.3191C30.179 14.3205 30.1791 14.3201 30.1792 14.3194C30.1792 14.319 30.1794 14.3177 30.1797 14.3159C30.1799 14.3145 30.1805 14.3106 30.1814 14.3056C30.1817 14.3036 30.1843 14.288 30.1893 14.2686C30.1908 14.2625 30.1983 14.2324 30.2138 14.196C30.2201 14.1812 30.2406 14.1337 30.2812 14.0822C30.3021 14.0557 30.3426 14.0096 30.4068 13.969C30.4753 13.9257 30.5821 13.8825 30.7146 13.8934L30.6331 14.89ZM30.1738 14.3874C30.1738 14.3864 30.1738 14.3857 30.1738 14.3856C30.1738 14.3844 30.1738 14.387 30.1738 14.3881C30.1738 14.3891 30.1738 14.3911 30.1738 14.3936C30.1738 14.3957 30.1739 14.4007 30.1741 14.4071C30.1742 14.4099 30.1746 14.4286 30.1775 14.4521C30.1785 14.4599 30.1826 14.4952 30.1958 14.5383C30.2016 14.5572 30.2185 14.6098 30.2572 14.6681C30.289 14.7161 30.405 14.8709 30.632 14.8899L30.7158 13.8935C30.9427 13.9125 31.0587 14.0673 31.0905 14.1152C31.1292 14.1736 31.1461 14.2262 31.1519 14.245C31.1651 14.2881 31.1692 14.3233 31.1702 14.3312C31.173 14.3545 31.1735 14.3731 31.1736 14.3757C31.1738 14.3819 31.1738 14.3867 31.1738 14.3885C31.1738 14.3907 31.1738 14.3924 31.1738 14.393C31.1738 14.398 31.1738 14.3895 31.1738 14.3874H30.1738ZM31.1075 15.5443C31.1302 15.3143 31.1738 14.5894 31.1738 14.3874H30.1738C30.1738 14.5455 30.1332 15.2354 30.1124 15.446L31.1075 15.5443ZM31.0982 15.6279C31.1023 15.5952 31.1054 15.5656 31.1075 15.5443L30.1124 15.446C30.1107 15.4626 30.1086 15.4825 30.1061 15.503L31.0982 15.6279ZM31.0981 15.6292L31.0983 15.6276L30.106 15.5033L30.1058 15.5049L31.0981 15.6292ZM31.0635 15.8299C31.0853 15.7317 31.0956 15.649 31.0981 15.629L30.1058 15.505C30.1044 15.516 30.0987 15.5615 30.0873 15.6129L31.0635 15.8299ZM31.0245 15.9785C31.0441 15.9137 31.0566 15.8606 31.0635 15.8299L30.0873 15.6129C30.0838 15.6286 30.0774 15.6556 30.0675 15.6884L31.0245 15.9785ZM30.878 16.3347C30.9663 16.1677 31.0101 16.0259 31.0245 15.9785L30.0675 15.6884C30.0605 15.7113 30.0385 15.783 29.994 15.8672L30.878 16.3347ZM30.5842 16.7513C30.7419 16.5792 30.8342 16.4174 30.878 16.3347L29.994 15.8672C29.9722 15.9083 29.9261 15.9894 29.847 16.0757L30.5842 16.7513ZM29.5304 17.3555C30.0964 17.2336 30.4405 16.9082 30.5842 16.7513L29.847 16.0757C29.7743 16.155 29.6023 16.3171 29.3199 16.3779L29.5304 17.3555ZM27.9106 17.0013C28.289 17.2846 28.8686 17.498 29.5304 17.3555L29.3199 16.3779C28.9914 16.4486 28.7014 16.3441 28.5099 16.2008L27.9106 17.0013ZM27.3573 16.3652C27.4243 16.4867 27.59 16.7613 27.9106 17.0013L28.5099 16.2008C28.3493 16.0805 28.2664 15.9429 28.2331 15.8826L27.3573 16.3652ZM27.1603 15.8507C27.1731 15.9061 27.2229 16.1213 27.3573 16.3652L28.2331 15.8826C28.1652 15.7594 28.1402 15.65 28.1347 15.6259L27.1603 15.8507ZM27.1598 15.8488L27.1603 15.8507L28.1347 15.6259L28.1342 15.624L27.1598 15.8488ZM27.1256 15.66C27.1304 15.696 27.1403 15.7645 27.1599 15.849L28.1342 15.6238C28.1243 15.5811 28.1193 15.5464 28.1168 15.5282L27.1256 15.66ZM27.1107 15.5031C27.1122 15.5279 27.1158 15.5867 27.1256 15.66L28.1168 15.5282C28.1118 15.4904 28.1099 15.4596 28.1091 15.4459L27.1107 15.5031ZM27.1108 15.1076C27.1082 15.2058 27.1033 15.3738 27.1107 15.5031L28.1091 15.4459C28.1046 15.3677 28.1074 15.2465 28.1105 15.1346L27.1108 15.1076ZM27.1756 13.4402C27.1379 14.3102 27.1184 14.8279 27.1108 15.1076L28.1105 15.1346C28.1178 14.8639 28.137 14.3535 28.1747 13.4836L27.1756 13.4402ZM27.4477 12.5161C27.2876 12.789 27.1902 13.1038 27.1756 13.4402L28.1747 13.4836C28.1821 13.314 28.2308 13.1575 28.3103 13.022L27.4477 12.5161ZM27.5706 12.0613C27.5091 12.2309 27.4443 12.4323 27.3922 12.6549L28.3658 12.8831C28.4068 12.7082 28.4588 12.5454 28.5107 12.4022L27.5706 12.0613ZM28.036 11.0386C27.8862 11.3148 27.7119 11.6717 27.5706 12.0613L28.5107 12.4022C28.6301 12.0729 28.7808 11.7627 28.915 11.5153L28.036 11.0386ZM28.5553 10.1554C28.3934 10.4177 28.2088 10.7199 28.036 11.0386L28.915 11.5153C29.0733 11.2234 29.245 10.9419 29.4062 10.6807L28.5553 10.1554ZM28.6295 10.0354C28.6053 10.0745 28.5806 10.1145 28.5553 10.1554L29.4062 10.6807C29.4312 10.6402 29.4558 10.6005 29.48 10.5614L28.6295 10.0354ZM28.9992 9.42418C28.8872 9.6187 28.768 9.81148 28.6295 10.0354L29.48 10.5614C29.6169 10.3401 29.7445 10.1338 29.8657 9.92341L28.9992 9.42418ZM29.4424 8.39557C29.3931 8.65351 29.2639 8.96489 28.9992 9.42418L29.8657 9.92341C30.1493 9.43115 30.3439 9.00516 30.4246 8.58342L29.4424 8.39557ZM31.7825 6.80688C30.6976 6.59939 29.6499 7.31067 29.4424 8.39557L30.4246 8.58342C30.5283 8.04097 31.0522 7.68533 31.5946 7.78908L31.7825 6.80688ZM27.127 15.15C27.127 15.1506 27.1269 15.151 27.1269 15.1514L28.122 15.2496C28.1222 15.2484 28.1223 15.2473 28.1224 15.2462L27.127 15.15ZM27.1269 15.1514C27.1265 15.1553 27.1264 15.1561 27.1266 15.1546C27.1266 15.1541 27.1267 15.153 27.1269 15.1516C27.1271 15.1505 27.1275 15.1474 27.1281 15.1432C27.1283 15.1412 27.1289 15.1371 27.1298 15.1319C27.13 15.1308 27.1327 15.1137 27.138 15.0928C27.1396 15.0865 27.1426 15.0752 27.1471 15.0613C27.1501 15.0519 27.1605 15.02 27.1805 14.982C27.1899 14.9641 27.2122 14.924 27.251 14.8809C27.2819 14.8465 27.381 14.7447 27.5519 14.7202C27.7611 14.6902 27.9148 14.7941 27.9905 14.8763C28.0548 14.9461 28.0824 15.0163 28.0916 15.0412C28.1125 15.0974 28.1179 15.1445 28.1191 15.1539C28.1212 15.1716 28.122 15.1857 28.1223 15.193C28.123 15.2079 28.1228 15.2196 28.1227 15.2241C28.1222 15.2567 28.1178 15.2841 28.1208 15.26L27.1285 15.1363C27.1276 15.1437 27.1268 15.1506 27.1261 15.1568C27.1258 15.1597 27.1254 15.1634 27.1251 15.1674C27.1249 15.1693 27.1246 15.1725 27.1243 15.1763C27.1242 15.1782 27.124 15.1812 27.1237 15.1849C27.1236 15.1875 27.1231 15.1956 27.1229 15.206C27.1228 15.2105 27.1227 15.2223 27.1233 15.2372C27.1236 15.2445 27.1244 15.2587 27.1266 15.2764C27.1277 15.2857 27.1332 15.3328 27.1541 15.3891C27.1633 15.414 27.1908 15.4842 27.2551 15.554C27.3309 15.6361 27.4846 15.74 27.6937 15.7101C27.8647 15.6856 27.9638 15.5837 27.9947 15.5494C28.0334 15.5063 28.0557 15.4662 28.0652 15.4482C28.0852 15.4103 28.0956 15.3783 28.0986 15.3689C28.1031 15.355 28.1061 15.3437 28.1077 15.3374C28.113 15.3164 28.1157 15.2992 28.1159 15.298C28.1168 15.2926 28.1175 15.2883 28.1178 15.2861C28.1189 15.2783 28.1197 15.2717 28.1199 15.2698C28.1206 15.2635 28.1213 15.2566 28.122 15.2496L27.1269 15.1514ZM7.48582 10.4463C6.41606 10.1712 5.32583 10.8154 5.05071 11.8851L6.0192 12.1342C6.15675 11.5993 6.70187 11.2772 7.23675 11.4148L7.48582 10.4463ZM9.29899 11.3764C8.98991 11.1511 8.32577 10.6623 7.48582 10.4463L7.23675 11.4148C7.87122 11.5779 8.39712 11.9565 8.70995 12.1845L9.29899 11.3764ZM9.31261 11.3864C9.30815 11.3831 9.30362 11.3798 9.29899 11.3764L8.70994 12.1845C8.71457 12.1879 8.71916 12.1913 8.7237 12.1946L9.31261 11.3864ZM9.53103 11.5114C9.36369 11.4193 9.33264 11.401 9.3126 11.3864L8.7237 12.1946C8.80824 12.2562 8.91062 12.3113 9.04876 12.3874L9.53103 11.5114ZM9.70527 11.6076C9.63678 11.5696 9.57929 11.5379 9.53103 11.5114L9.04876 12.3874C9.09701 12.414 9.15321 12.4449 9.22009 12.482L9.70527 11.6076ZM10.1404 11.8677C9.98062 11.7623 9.82239 11.6726 9.70527 11.6076L9.22009 12.482C9.33154 12.5438 9.4627 12.6186 9.58957 12.7023L10.1404 11.8677ZM10.716 12.3364C10.51 12.1245 10.2951 11.9698 10.1404 11.8677L9.58957 12.7023C9.71361 12.7842 9.86297 12.8935 9.99894 13.0334L10.716 12.3364ZM10.9965 12.5541C10.8866 12.472 10.822 12.4237 10.7771 12.3884C10.735 12.3553 10.7228 12.3434 10.716 12.3364L9.99894 13.0334C10.0908 13.1279 10.2012 13.2083 10.3982 13.3554L10.9965 12.5541ZM11.0072 12.562L10.9965 12.5541L10.3982 13.3554L10.4089 13.3633L11.0072 12.562ZM11.8638 13.351C11.5485 12.9646 11.1897 12.6983 11.0072 12.562L10.4089 13.3633C10.5896 13.4982 10.8589 13.7012 11.0891 13.9832L11.8638 13.351ZM13.3467 17.1821C13.3467 15.7463 12.6453 14.3085 11.8638 13.351L11.0891 13.9832C11.7734 14.8217 12.3467 16.0433 12.3467 17.1821H13.3467ZM13.3467 17.3403C13.3467 17.2872 13.3467 17.2345 13.3467 17.1821H12.3467C12.3467 17.2347 12.3467 17.2876 12.3467 17.3406L13.3467 17.3403ZM13.1156 21.2968C13.3487 19.8978 13.3472 18.5398 13.3467 17.3403L12.3467 17.3406C12.3472 18.55 12.3466 19.8274 12.1292 21.1324L13.1156 21.2968ZM12.4628 23.1322C12.6923 22.6873 12.9875 22.0652 13.1156 21.2968L12.1292 21.1324C12.0272 21.7446 11.7899 22.2554 11.5741 22.6738L12.4628 23.1322ZM12.258 23.5211C12.3179 23.4088 12.3859 23.2813 12.4628 23.1322L11.5741 22.6738C11.5007 22.8161 11.4356 22.9381 11.3757 23.0505L12.258 23.5211ZM11.9436 24.1647C12.0261 23.9571 12.1166 23.7863 12.258 23.5211L11.3757 23.0505C11.2379 23.3089 11.1206 23.5277 11.0143 23.7955L11.9436 24.1647ZM11.894 24.2907C11.9098 24.2503 11.9261 24.2089 11.9436 24.1647L11.0143 23.7955C10.9957 23.8423 10.9787 23.8857 10.9629 23.9259L11.894 24.2907ZM11.5533 25.0201C11.7253 24.7219 11.7996 24.5316 11.894 24.2907L10.9629 23.9259C10.8729 24.1556 10.8204 24.2892 10.687 24.5204L11.5533 25.0201ZM11.3898 25.2964C11.455 25.1871 11.5111 25.0932 11.5533 25.0201L10.687 24.5204C10.6495 24.5855 10.5979 24.6719 10.5311 24.7839L11.3898 25.2964ZM11.2706 25.4964C11.3137 25.4238 11.3534 25.3573 11.3898 25.2964L10.5311 24.7839C10.4948 24.8446 10.4545 24.9121 10.4108 24.9859L11.2706 25.4964ZM11.1802 25.649C11.2129 25.5936 11.243 25.543 11.2706 25.4964L10.4108 24.9859C10.3827 25.0331 10.3523 25.0845 10.3191 25.1407L11.1802 25.649ZM11.5617 25.1018C11.3304 25.0268 11.096 24.9627 10.8643 24.9082L10.6351 25.8815C10.8436 25.9306 11.0512 25.9875 11.2532 26.053L11.5617 25.1018ZM11.4905 25.0819C11.4681 25.0805 11.4569 25.0798 11.4469 25.079L11.368 26.0758C11.387 26.0774 11.4064 26.0786 11.4265 26.0799L11.4905 25.0819ZM11.6053 25.0897C11.5518 25.0858 11.5163 25.0836 11.4904 25.0819L11.4266 26.0799C11.4516 26.0815 11.4842 26.0836 11.5341 26.0871L11.6053 25.0897ZM12.0847 25.1501C11.8834 25.1104 11.7006 25.0965 11.6053 25.0897L11.5341 26.0871C11.6215 26.0934 11.7534 26.104 11.8914 26.1312L12.0847 25.1501ZM12.8791 25.4416C12.5655 25.2617 12.2691 25.1864 12.0847 25.1501L11.8914 26.1312C12.0175 26.1561 12.1976 26.2035 12.3817 26.3091L12.8791 25.4416ZM12.8174 25.4107C12.8071 25.4074 12.8007 25.4052 12.7978 25.4042L12.4631 26.3465C12.4775 26.3516 12.4951 26.3576 12.5162 26.3642L12.8174 25.4107ZM13.0796 25.4783C12.9526 25.4492 12.8692 25.427 12.8174 25.4107L12.5162 26.3642C12.6061 26.3926 12.7199 26.4218 12.8565 26.4531L13.0796 25.4783ZM13.3511 25.5376C13.2536 25.5168 13.1684 25.4986 13.0796 25.4783L12.8565 26.4531C12.9537 26.4753 13.046 26.495 13.1424 26.5156L13.3511 25.5376ZM13.4907 25.5675C13.4413 25.5569 13.395 25.547 13.3511 25.5376L13.1424 26.5156C13.1864 26.525 13.2315 26.5346 13.2794 26.5449L13.4907 25.5675ZM13.9865 25.6876C13.8136 25.6382 13.628 25.5972 13.4907 25.5675L13.2794 26.5449C13.4169 26.5747 13.5737 26.6096 13.7117 26.6491L13.9865 25.6876ZM15.9762 26.2847C15.3305 26.0862 14.6628 25.8808 13.9865 25.6876L13.7117 26.6491C14.3769 26.8391 15.0351 27.0415 15.6823 27.2405L15.9762 26.2847ZM16.051 26.3077L15.9762 26.2847L15.6823 27.2405L15.7571 27.2635L16.051 26.3077ZM16.5161 26.4504C16.362 26.4033 16.2071 26.3557 16.051 26.3077L15.7571 27.2635C15.9133 27.3115 16.0688 27.3593 16.2237 27.4067L16.5161 26.4504ZM15.8904 25.692C15.855 26.183 15.8604 26.5869 15.8701 26.9422L16.8697 26.9149C16.8604 26.5726 16.8559 26.2065 16.8878 25.7638L15.8904 25.692ZM17.2988 23.2877C16.8191 23.6532 15.9825 24.4136 15.8904 25.692L16.8878 25.7638C16.9483 24.9239 17.4945 24.3958 17.9048 24.0832L17.2988 23.2877ZM17.9977 22.8168C17.8159 22.9302 17.5519 23.0949 17.2988 23.2877L17.9048 24.0832C18.1159 23.9224 18.3423 23.7805 18.5271 23.6651L17.9977 22.8168ZM18.0133 22.8071L17.9977 22.8168L18.5271 23.6651L18.5427 23.6554L18.0133 22.8071ZM18.4281 22.5377C18.3309 22.6085 18.2149 22.6812 18.0133 22.8071L18.5427 23.6554C18.7338 23.5361 18.8844 23.4425 19.017 23.3459L18.4281 22.5377ZM21.1461 21.952C20.3137 21.7958 19.3266 21.883 18.4281 22.5377L19.017 23.3459C19.6458 22.8877 20.337 22.8177 20.9617 22.9349L21.1461 21.952ZM23.0614 22.7251C22.5748 22.4416 21.9039 22.0942 21.1461 21.952L20.9617 22.9349C21.548 23.0449 22.0995 23.322 22.558 23.5891L23.0614 22.7251ZM24.0077 23.3178C23.72 23.1316 23.369 22.9043 23.0614 22.7251L22.558 23.5891C22.8414 23.7543 23.1717 23.9679 23.4644 24.1574L24.0077 23.3178ZM24.3903 23.563C24.2859 23.4978 24.1558 23.4136 24.0077 23.3178L23.4645 24.1574C23.6101 24.2516 23.7478 24.3408 23.8606 24.4112L24.3903 23.563ZM24.9316 23.8684C24.8232 23.8188 24.6513 23.726 24.3903 23.563L23.8607 24.4112C24.1383 24.5846 24.3514 24.7027 24.516 24.7779L24.9316 23.8684ZM24.7286 23.8199C24.7089 23.822 24.6905 23.8239 24.6732 23.8257L24.7744 24.8206C24.7935 24.8186 24.8137 24.8165 24.835 24.8142L24.7286 23.8199ZM25.4991 23.7234C25.2128 23.7628 24.9354 23.7978 24.7286 23.8199L24.835 24.8142C25.0554 24.7907 25.3437 24.7543 25.6354 24.7141L25.4991 23.7234ZM26.1013 23.6355C25.9229 23.6633 25.7131 23.694 25.4991 23.7234L25.6354 24.7141C25.8545 24.6839 26.0703 24.6524 26.2553 24.6235L26.1013 23.6355ZM26.2202 23.495C26.1367 23.5416 26.0006 23.6234 25.8531 23.7497L26.5035 24.5093C26.5829 24.4413 26.6575 24.3961 26.7076 24.3681L26.2202 23.495ZM26.5353 23.3449C26.4518 23.3791 26.3398 23.4282 26.2202 23.495L26.7076 24.3681C26.7793 24.3281 26.851 24.2962 26.9134 24.2707L26.5353 23.3449ZM28.0117 22.9507C27.653 23.0155 27.0974 23.1154 26.5353 23.3449L26.9134 24.2707C27.3671 24.0854 27.8274 24.0002 28.1894 23.9348L28.0117 22.9507ZM28.0461 22.9445L28.0117 22.9507L28.1894 23.9348L28.2238 23.9286L28.0461 22.9445ZM28.8223 22.7736C28.6403 22.836 28.4424 22.8729 28.0461 22.9445L28.2238 23.9286C28.5963 23.8613 28.8775 23.8118 29.1467 23.7195L28.8223 22.7736ZM29.5575 22.5408C29.3355 22.608 29.0765 22.6864 28.8223 22.7736L29.1467 23.7195C29.3809 23.6392 29.6227 23.5659 29.8473 23.4979L29.5575 22.5408ZM29.5685 22.5375L29.5575 22.5408L29.8473 23.4979L29.8583 23.4946L29.5685 22.5375ZM30.1979 22.3395C30.0062 22.4048 29.8053 22.4658 29.5685 22.5375L29.8583 23.4946C30.0921 23.4238 30.3096 23.3579 30.5203 23.2861L30.1979 22.3395ZM30.7293 22.1264C30.6003 22.1907 30.4285 22.261 30.1979 22.3395L30.5203 23.2861C30.7762 23.1989 30.993 23.1123 31.1756 23.0212L30.7293 22.1264ZM29.5905 22.4767C29.9688 22.695 30.3769 22.8803 30.7649 23.0373L31.14 22.1103C30.7765 21.9632 30.4144 21.7976 30.0905 21.6106L29.5905 22.4767ZM28.1234 21.1497C28.5354 21.8031 29.1469 22.2207 29.5905 22.4767L30.0905 21.6106C29.6959 21.3829 29.2519 21.0645 28.9693 20.6163L28.1234 21.1497ZM27.1178 17.4718C27.1607 18.5677 27.3497 19.9227 28.1234 21.1497L28.9693 20.6163C28.3328 19.6069 28.1572 18.4586 28.1171 17.4327L27.1178 17.4718ZM27.1285 15.8918C27.1111 16.3685 27.096 16.9136 27.1178 17.4718L28.1171 17.4327C28.0968 16.9145 28.1106 16.401 28.1279 15.9284L27.1285 15.8918ZM27.1399 15.5919C27.1362 15.6882 27.1323 15.7882 27.1285 15.8918L28.1279 15.9284C28.1316 15.826 28.1355 15.7271 28.1392 15.6306L27.1399 15.5919ZM27.1662 14.6155C27.1662 14.9121 27.1542 15.2239 27.1399 15.5919L28.1392 15.6306C28.1533 15.2671 28.1662 14.9351 28.1662 14.6155H27.1662ZM29.1662 12.6155C28.0616 12.6155 27.1662 13.5109 27.1662 14.6155H28.1662C28.1662 14.0632 28.6139 13.6155 29.1662 13.6155V12.6155ZM31.1662 14.6155C31.1662 13.5109 30.2708 12.6155 29.1662 12.6155V13.6155C29.7185 13.6155 30.1662 14.0632 30.1662 14.6155H31.1662ZM31.1359 15.7763C31.1503 15.4061 31.1662 14.9992 31.1662 14.6155H30.1662C30.1662 14.9762 30.1512 15.3633 30.1366 15.7374L31.1359 15.7763ZM31.1259 16.0382C31.129 15.9531 31.1324 15.8658 31.1359 15.7763L30.1366 15.7374C30.1331 15.8266 30.1297 15.9151 30.1265 16.0016L31.1259 16.0382ZM31.1148 17.3153C31.0992 16.9173 31.109 16.4989 31.1259 16.0382L30.1265 16.0016C30.1095 16.4661 30.0984 16.9163 30.1155 17.3544L31.1148 17.3153ZM31.4956 18.9979C31.2776 18.6418 31.1462 18.118 31.1148 17.3153L30.1155 17.3544C30.1496 18.2258 30.2941 18.9503 30.6426 19.5199L31.4956 18.9979ZM31.5902 19.0124C31.5099 18.9661 31.4613 18.9322 31.4357 18.913C31.423 18.9036 31.4152 18.8972 31.4115 18.894C31.4096 18.8924 31.408 18.891 31.4061 18.8893C31.4059 18.8891 31.4027 18.8863 31.4008 18.8847C31.4 18.884 31.3919 18.8768 31.382 18.8689L30.7562 19.6488C30.7152 19.6159 30.7957 19.6832 30.837 19.7141C30.8965 19.7585 30.9785 19.8139 31.0903 19.8785L31.5902 19.0124ZM32.5016 19.4219C32.1068 19.2719 31.8025 19.135 31.5902 19.0124L31.0903 19.8785C31.3699 20.0399 31.7309 20.1989 32.1465 20.3567L32.5016 19.4219ZM33.733 19.8482C33.3046 19.7069 32.8903 19.5695 32.5016 19.4219L32.1465 20.3567C32.5592 20.5135 32.9942 20.6575 33.4197 20.7979L33.733 19.8482ZM33.7797 19.8637L33.733 19.8482L33.4197 20.7979L33.4665 20.8133L33.7797 19.8637ZM34.9608 20.277C34.6027 20.1349 34.169 19.992 33.7797 19.8637L33.4665 20.8133C33.8637 20.9444 34.2669 21.0775 34.592 21.2065L34.9608 20.277ZM35.176 20.3624L34.9608 20.277L34.592 21.2065L34.8072 21.2919L35.176 20.3624ZM35.4871 20.586L35.3076 20.4397L34.6757 21.2147L34.8551 21.361L35.4871 20.586ZM36.4694 22.3208C36.3917 21.373 35.7507 20.801 35.4871 20.586L34.8551 21.361C35.074 21.5395 35.4302 21.8832 35.4727 22.4024L36.4694 22.3208ZM35.2631 24.4633C35.6944 24.2381 36.571 23.5607 36.4694 22.3208L35.4727 22.4024C35.5263 23.0566 35.0754 23.4332 34.8003 23.5768L35.2631 24.4633ZM34.0752 24.7629C34.3798 24.7538 34.8226 24.6932 35.2631 24.4633L34.8003 23.5768C34.536 23.7147 34.2552 23.7571 34.0454 23.7633L34.0752 24.7629ZM33.8991 24.7629C33.9633 24.7648 34.0225 24.7645 34.0752 24.7629L34.0453 23.7633C34.0103 23.7644 33.9712 23.7646 33.9288 23.7633L33.8991 24.7629ZM33.2896 25.2377C33.5391 25.0554 33.8821 24.8422 34.1432 24.7075L33.6847 23.8188C33.3751 23.9785 32.9882 24.2194 32.6995 24.4304L33.2896 25.2377ZM31.4875 26.1259C32.0102 25.9479 32.6788 25.6842 33.2896 25.2377L32.6995 24.4304C32.211 24.7875 31.6556 25.0122 31.1651 25.1793L31.4875 26.1259ZM30.7391 26.3624C30.9621 26.2949 31.2244 26.2155 31.4875 26.1259L31.1651 25.1793C30.9208 25.2625 30.6744 25.3372 30.4493 25.4053L30.7391 26.3624ZM30.7277 26.3659L30.7391 26.3624L30.4493 25.4053L30.4379 25.4088L30.7277 26.3659ZM30.1198 26.5573C30.2972 26.4965 30.4898 26.4379 30.7277 26.3659L30.4379 25.4088C30.2036 25.4797 29.9931 25.5436 29.7954 25.6114L30.1198 26.5573ZM28.8098 26.8714C29.1352 26.8133 29.6266 26.7264 30.1198 26.5573L29.7954 25.6114C29.3847 25.7522 28.9649 25.8279 28.6341 25.887L28.8098 26.8714ZM28.7226 26.887C28.7503 26.882 28.7792 26.8769 28.8098 26.8714L28.6341 25.887C28.6037 25.8924 28.5737 25.8977 28.5449 25.9029L28.7226 26.887ZM28.2725 26.9782C28.3848 26.9506 28.5264 26.9225 28.7226 26.887L28.5449 25.9029C28.3451 25.939 28.1778 25.9717 28.0336 26.0071L28.2725 26.9782ZM28.4069 26.9398C28.4376 26.9127 28.4709 26.8818 28.5058 26.8471L27.8004 26.1383C27.781 26.1575 27.7623 26.1749 27.7448 26.1904L28.4069 26.9398ZM28.0508 27.2019C28.1491 27.1412 28.2761 27.0553 28.4069 26.9398L27.7448 26.1904C27.6696 26.2568 27.5928 26.3095 27.5256 26.3509L28.0508 27.2019ZM27.6075 27.4069C27.6478 27.3939 27.84 27.332 28.0508 27.2019L27.5256 26.3509C27.4174 26.4177 27.3155 26.4504 27.3013 26.4549L27.6075 27.4069ZM27.607 27.4071L27.6075 27.4069L27.3012 26.4549C27.3004 26.4552 27.2982 26.4559 27.296 26.4566L27.607 27.4071ZM27.4495 27.4525C27.483 27.444 27.5401 27.4289 27.6069 27.4071L27.2962 26.4566C27.2591 26.4687 27.2261 26.4775 27.204 26.4831L27.4495 27.4525ZM27.2638 27.4939C27.3131 27.4841 27.38 27.4701 27.4495 27.4525L27.204 26.4831C27.1583 26.4946 27.1103 26.5048 27.0681 26.5133L27.2638 27.4939ZM26.9164 27.5559C27.0386 27.5358 27.1605 27.5145 27.2638 27.4939L27.0681 26.5133C26.9809 26.5307 26.8718 26.5498 26.754 26.5692L26.9164 27.5559ZM26.0445 27.6861C26.3536 27.6435 26.6673 27.5969 26.9164 27.5559L26.754 26.5692C26.5159 26.6084 26.2113 26.6537 25.9081 26.6954L26.0445 27.6861ZM25.1541 27.7972C25.4156 27.7692 25.7362 27.7285 26.0445 27.6861L25.9081 26.6954C25.6054 26.7371 25.2955 26.7764 25.0477 26.8029L25.1541 27.7972ZM24.7758 27.8312C24.8932 27.8236 25.026 27.8109 25.1541 27.7972L25.0477 26.8029C24.9252 26.816 24.8083 26.827 24.7115 26.8333L24.7758 27.8312ZM24.5603 27.8392C24.6423 27.8389 24.7191 27.8348 24.7758 27.8312L24.7115 26.8333C24.6642 26.8363 24.6098 26.839 24.5563 26.8392L24.5603 27.8392ZM24.5678 27.8391C24.5683 27.8391 24.5681 27.8391 24.5677 27.8391C24.5675 27.8391 24.5669 27.8392 24.5661 27.8392C24.5656 27.8392 24.5635 27.8392 24.5609 27.8392L24.5557 26.8392C24.553 26.8393 24.5508 26.8393 24.5501 26.8393C24.5491 26.8393 24.5483 26.8393 24.5479 26.8393C24.5471 26.8394 24.5463 26.8394 24.5461 26.8394L24.5678 27.8391ZM23.9749 27.7654C24.2702 27.8458 24.5343 27.8399 24.5679 27.8391L24.546 26.8394C24.5414 26.8395 24.3924 26.8426 24.2376 26.8005L23.9749 27.7654ZM22.2717 26.9559C22.6914 27.2179 23.3049 27.5829 23.9749 27.7654L24.2376 26.8005C23.722 26.6601 23.2167 26.367 22.8013 26.1076L22.2717 26.9559ZM21.7254 26.6059C21.8868 26.7109 22.0634 26.8258 22.2717 26.9559L22.8013 26.1076C22.6018 25.983 22.4323 25.8728 22.2707 25.7677L21.7254 26.6059ZM21.0476 26.1812C21.2843 26.3191 21.487 26.4508 21.7254 26.6059L22.2707 25.7677C22.0342 25.6139 21.812 25.4692 21.5511 25.3172L21.0476 26.1812ZM20.4085 25.8834C20.478 25.8965 20.6699 25.9611 21.0476 26.1812L21.551 25.3172C21.1478 25.0822 20.8355 24.9461 20.5929 24.9006L20.4085 25.8834ZM20.408 25.8832L20.4085 25.8834L20.5929 24.9006C20.5651 24.8954 20.5395 24.8916 20.516 24.8891L20.408 25.8832ZM20.1584 26.1834C20.3179 26.084 20.5404 25.9456 20.7539 25.7921L20.1701 24.9802C19.9874 25.1115 19.7923 25.2333 19.6296 25.3346L20.1584 26.1834ZM20.1155 26.2101C20.1293 26.2015 20.1436 26.1926 20.1585 26.1834L19.6296 25.3346C19.6148 25.3439 19.6002 25.353 19.586 25.3618L20.1155 26.2101ZM19.7228 26.4696C19.8068 26.4056 19.9187 26.3329 20.1155 26.2101L19.5861 25.3618C19.394 25.4816 19.2434 25.5777 19.1168 25.6741L19.7228 26.4696ZM19.6887 26.4965C19.6973 26.4894 19.7085 26.4805 19.7228 26.4696L19.1168 25.6741C19.093 25.6923 19.0717 25.7092 19.0526 25.7249L19.6887 26.4965ZM19.8692 26.7958C19.8605 26.5616 19.8549 26.4095 19.8699 26.1383L18.8714 26.0832C18.8538 26.4019 18.8609 26.5912 18.8699 26.8329L19.8692 26.7958ZM19.8852 27.5995C19.8851 27.2234 19.8763 26.9862 19.8692 26.7958L18.8699 26.8329C18.8768 27.0188 18.8851 27.2419 18.8852 27.5999L19.8852 27.5995ZM19.8874 27.6131C19.8862 27.5988 19.8855 27.5887 19.8851 27.5822C19.8847 27.5756 19.8846 27.5732 19.8843 27.5694L18.8862 27.63C18.8861 27.6299 18.8861 27.6299 18.8862 27.6302C18.8862 27.6306 18.8862 27.6307 18.8862 27.6314C18.8863 27.6324 18.8864 27.6338 18.8865 27.6354C18.8867 27.6388 18.8869 27.643 18.8873 27.6483C18.888 27.6587 18.889 27.6726 18.8904 27.6905L19.8874 27.6131ZM19.8908 27.6551C19.8889 27.6322 19.8877 27.6172 19.8874 27.6131L18.8904 27.6905C18.8909 27.6974 18.8924 27.7157 18.8941 27.7367L19.8908 27.6551ZM19.9039 27.819C19.901 27.7797 19.8947 27.7028 19.8908 27.6551L18.8941 27.7367C18.8982 27.7864 18.9041 27.8589 18.9068 27.8939L19.9039 27.819ZM19.911 28.568C19.935 28.264 19.9158 27.9773 19.9039 27.819L18.9068 27.8939C18.918 28.0439 18.9317 28.2664 18.9141 28.4894L19.911 28.568ZM19.3479 30.0349C19.8304 29.4547 19.8933 28.7925 19.911 28.568L18.9141 28.4894C18.8998 28.6701 18.8538 29.0651 18.579 29.3956L19.3479 30.0349ZM18.1523 30.7806C18.6576 30.6586 19.0632 30.3774 19.3479 30.0349L18.579 29.3956C18.4199 29.5869 18.1961 29.7413 17.9176 29.8086L18.1523 30.7806ZM16.9463 30.7497C17.2523 30.8361 17.6768 30.8955 18.1523 30.7806L17.9176 29.8086C17.6539 29.8723 17.4099 29.8415 17.2182 29.7874L16.9463 30.7497ZM14.8755 30.1311C15.5467 30.3374 16.2412 30.5505 16.9464 30.7497L17.2182 29.7874C16.5257 29.5917 15.8417 29.3819 15.1694 29.1752L14.8755 30.1311ZM14.8106 30.1111L14.8755 30.1311L15.1694 29.1752L15.1045 29.1553L14.8106 30.1111ZM12.8875 29.5336C13.5231 29.7152 14.1557 29.9097 14.8106 30.1111L15.1045 29.1553C14.4512 28.9544 13.809 28.7569 13.1622 28.5721L12.8875 29.5336ZM12.6048 29.4686C12.7443 29.498 12.8181 29.5138 12.8875 29.5336L13.1622 28.5721C13.0519 28.5406 12.9406 28.5174 12.8108 28.4901L12.6048 29.4686ZM12.1874 29.3775C12.3659 29.4183 12.4996 29.4465 12.6048 29.4686L12.8108 28.4901C12.7066 28.4681 12.58 28.4415 12.4104 28.4027L12.1874 29.3775ZM12.1825 29.3764L12.1873 29.3775L12.4105 28.4027L12.4057 28.4016L12.1825 29.3764ZM11.1135 29.0304C11.5307 29.2288 11.9783 29.3297 12.1826 29.3764L12.4056 28.4016C12.1956 28.3535 11.8485 28.2726 11.5429 28.1273L11.1135 29.0304ZM11.2695 29.0761C11.2787 29.0767 11.2862 29.0772 11.2947 29.0777L11.3617 28.08C11.3517 28.0793 11.3428 28.0787 11.3339 28.0781L11.2695 29.0761ZM11.2043 29.0717C11.235 29.0739 11.2538 29.0751 11.2695 29.0761L11.3339 28.0782C11.3186 28.0772 11.3015 28.0761 11.2727 28.0741L11.2043 29.0717ZM11.0163 29.056C11.0893 29.0635 11.1561 29.0684 11.2043 29.0717L11.2727 28.0741C11.2285 28.0711 11.1752 28.0671 11.1193 28.0613L11.0163 29.056ZM10.3693 28.9205C10.6408 29.0121 10.8857 29.0425 11.0163 29.056L11.1193 28.0613C11.016 28.0506 10.8568 28.0296 10.6891 27.973L10.3693 28.9205ZM9.50374 28.7135C9.82715 28.767 10.1249 28.838 10.3693 28.9205L10.6891 27.973C10.3815 27.8691 10.0291 27.7868 9.66686 27.7269L9.50374 28.7135ZM8.76513 28.4471C8.82175 28.4795 9.1175 28.6497 9.50374 28.7135L9.66686 27.7269C9.46307 27.6932 9.29455 27.5979 9.26153 27.579L8.76513 28.4471ZM8.76346 28.4462C8.76271 28.4458 8.76238 28.4456 8.76289 28.4459C8.76336 28.4461 8.76399 28.4465 8.76514 28.4471L9.26152 27.579C9.26001 27.5782 9.25625 27.576 9.2528 27.5741L8.76346 28.4462ZM8.46482 28.2579C8.54922 28.3164 8.65209 28.3837 8.7635 28.4462L9.25275 27.5741C9.17763 27.5319 9.10268 27.4833 9.03473 27.4362L8.46482 28.2579ZM7.92977 27.8333C8.10554 27.9918 8.29392 28.1393 8.46482 28.2579L9.03474 27.4362C8.89769 27.3411 8.7427 27.2198 8.59934 27.0906L7.92977 27.8333ZM7.32964 27.1557C7.52927 27.4571 7.77641 27.6951 7.92977 27.8333L8.59935 27.0906C8.46778 26.972 8.29371 26.8003 8.16334 26.6035L7.32964 27.1557ZM6.97332 26.2927C7.05157 26.7127 7.23793 27.0173 7.32964 27.1557L8.16334 26.6035C8.10286 26.5122 7.99906 26.3385 7.95641 26.1096L6.97332 26.2927ZM6.94092 25.7904C6.93142 25.973 6.94556 26.1437 6.97332 26.2927L7.95641 26.1096C7.94235 26.0341 7.93437 25.9423 7.93957 25.8423L6.94092 25.7904ZM6.92745 25.7057C6.9307 25.7655 6.93657 25.826 6.94524 25.8869L7.93524 25.7458C7.93073 25.7142 7.92768 25.6827 7.92599 25.6515L6.92745 25.7057ZM6.97084 25.1517C6.93777 25.3075 6.91604 25.4951 6.92745 25.7057L7.92599 25.6515C7.92004 25.5418 7.9313 25.4429 7.94905 25.3593L6.97084 25.1517ZM7.0938 24.7586C7.04953 24.8647 7.00368 24.997 6.97084 25.1517L7.94905 25.3593C7.96668 25.2762 7.99162 25.2038 8.0167 25.1437L7.0938 24.7586ZM7.23024 24.4833C7.18619 24.5598 7.13825 24.6521 7.0938 24.7586L8.0167 25.1437C8.04188 25.0833 8.06975 25.0293 8.09675 24.9825L7.23024 24.4833ZM7.83122 23.4542C7.6934 23.6863 7.50248 24.0107 7.23024 24.4833L8.09675 24.9825C8.3667 24.5139 8.5554 24.1932 8.69107 23.9647L7.83122 23.4542ZM7.97436 23.214C7.93719 23.2762 7.89085 23.3538 7.83122 23.4542L8.69107 23.9647C8.74999 23.8655 8.79576 23.7889 8.83287 23.7267L7.97436 23.214ZM8.08835 23.0215C8.06128 23.0684 8.02856 23.1232 7.97436 23.214L8.83288 23.7267C8.88556 23.6385 8.92283 23.5762 8.95458 23.5211L8.08835 23.0215ZM8.10848 22.9874C8.10979 22.9851 8.11066 22.9837 8.10607 22.9914C8.10215 22.9979 8.09604 23.0081 8.08835 23.0215L8.95458 23.5211C8.95806 23.5151 8.96074 23.5106 8.96428 23.5047C8.96714 23.4999 8.97413 23.4883 8.98124 23.4756L8.10848 22.9874ZM8.22614 22.6881C8.16652 22.8382 8.136 22.916 8.11665 22.9642C8.09603 23.0155 8.09945 23.0036 8.10848 22.9874L8.98124 23.4756C9.00761 23.4284 9.02567 23.384 9.04452 23.3371C9.06465 23.287 9.09844 23.2009 9.15551 23.0572L8.22614 22.6881ZM8.79149 21.5185C8.63179 21.8174 8.40029 22.2496 8.22614 22.6881L9.15551 23.0572C9.30559 22.6794 9.5101 22.2956 9.6735 21.9898L8.79149 21.5185ZM8.90778 21.2987C8.87593 21.3604 8.83712 21.4331 8.79149 21.5185L9.6735 21.9898C9.71807 21.9063 9.76067 21.8266 9.79654 21.7571L8.90778 21.2987ZM9.16998 20.6392C9.14642 20.7806 9.08438 20.9563 8.90778 21.2987L9.79654 21.7571C9.98555 21.3906 10.1065 21.1026 10.1564 20.8036L9.16998 20.6392ZM9.34671 17.2504C9.34677 18.5312 9.34562 19.5852 9.16998 20.6392L10.1564 20.8036C10.348 19.6537 10.3468 18.515 10.3467 17.2504L9.34671 17.2504ZM9.3467 17.1821C9.3467 17.2049 9.34671 17.2277 9.34671 17.2504L10.3467 17.2504C10.3467 17.2277 10.3467 17.2049 10.3467 17.1821H9.3467ZM8.7648 15.88C8.95111 16.1083 9.10056 16.3703 9.20227 16.6167C9.30719 16.8708 9.3467 17.0727 9.3467 17.1821H10.3467C10.3467 16.8934 10.259 16.5557 10.1266 16.2351C9.99106 15.9067 9.79325 15.5586 9.53955 15.2477L8.7648 15.88ZM8.61407 15.7672C8.70093 15.832 8.7471 15.8694 8.77032 15.8892C8.79364 15.9092 8.78336 15.9028 8.7648 15.88L9.53955 15.2477C9.48018 15.175 9.39035 15.0988 9.21234 14.9659L8.61407 15.7672ZM8.56559 15.7313C8.5844 15.7452 8.60023 15.7569 8.61407 15.7672L9.21234 14.9659C9.19607 14.9538 9.17807 14.9405 9.15981 14.927L8.56559 15.7313ZM7.8775 15.1547C8.13618 15.4149 8.41774 15.622 8.56559 15.7313L9.15981 14.927C9.00994 14.8162 8.78534 14.6495 8.5866 14.4496L7.8775 15.1547ZM7.93717 15.2062C7.94143 15.209 7.94367 15.2106 7.94411 15.2109L8.51999 14.3934C8.51091 14.387 8.50029 14.3797 8.48797 14.3716L7.93717 15.2062ZM7.76456 15.1053C7.86008 15.1583 7.9095 15.188 7.93717 15.2062L8.48797 14.3716C8.42705 14.3314 8.35019 14.2866 8.24974 14.2308L7.76456 15.1053ZM7.67679 15.057C7.71196 15.0763 7.74181 15.0926 7.76456 15.1053L8.24974 14.2308C8.22426 14.2167 8.19186 14.1989 8.15753 14.1801L7.67679 15.057ZM7.4275 14.9186C7.5065 14.9636 7.60255 15.0163 7.67679 15.057L8.15753 14.1801C8.08134 14.1384 7.99305 14.0899 7.92264 14.0498L7.4275 14.9186ZM6.95698 14.6192C7.12974 14.7451 7.30177 14.847 7.4275 14.9186L7.92264 14.0498C7.80867 13.9849 7.67407 13.9044 7.54589 13.811L6.95698 14.6192ZM6.59865 14.3761C6.69348 14.4311 6.79962 14.5045 6.95698 14.6192L7.54589 13.811C7.38656 13.6949 7.24412 13.5945 7.10051 13.5111L6.59865 14.3761ZM6.48954 14.3202C6.47961 14.3177 6.48344 14.3177 6.50312 14.3263C6.52221 14.3347 6.55362 14.35 6.59865 14.3761L7.10052 13.5111C6.9583 13.4286 6.83936 13.3776 6.73861 13.3517L6.48954 14.3202ZM5.05071 11.8851C4.77559 12.9549 5.41978 14.0451 6.48954 14.3202L6.73861 13.3517C6.20373 13.2142 5.88164 12.6691 6.0192 12.1342L5.05071 11.8851ZM8.09689 27.4638C8.09798 27.4644 8.09823 27.4645 8.09785 27.4643C8.09773 27.4642 8.09747 27.4641 8.09711 27.4639C8.09682 27.4638 8.09608 27.4634 8.0951 27.4629C8.09462 27.4626 8.09373 27.4622 8.09262 27.4616C8.09197 27.4613 8.08923 27.4598 8.08574 27.4579C8.08445 27.4572 8.07975 27.4546 8.07381 27.4512C8.07134 27.4498 8.06415 27.4456 8.05519 27.4398C8.05098 27.4371 8.04185 27.4312 8.03068 27.423C8.02884 27.4217 7.99036 27.3948 7.9517 27.3514C7.92456 27.3181 7.85803 27.1972 7.83268 27.1052C7.83731 26.9095 8.03194 26.614 8.17873 26.5409C8.24889 26.5248 8.35489 26.5199 8.38901 26.5231C8.40814 26.5259 8.43913 26.5321 8.45105 26.5351C8.47284 26.5407 8.48941 26.5467 8.49491 26.5487C8.50253 26.5514 8.50858 26.5538 8.51207 26.5552C8.52367 26.5599 8.5327 26.5641 8.53347 26.5644C8.546 26.5702 8.55781 26.5764 8.54846 26.5716L8.09284 27.4618C8.0949 27.4628 8.09684 27.4638 8.09857 27.4647C8.09939 27.4651 8.10048 27.4656 8.10167 27.4662C8.10222 27.4665 8.10324 27.467 8.10449 27.4676C8.1051 27.4679 8.1062 27.4685 8.10758 27.4691C8.10817 27.4694 8.11199 27.4713 8.11688 27.4735C8.11765 27.4739 8.12669 27.4781 8.1383 27.4827C8.14179 27.4841 8.14784 27.4865 8.15546 27.4893C8.16096 27.4913 8.17753 27.4972 8.19932 27.5029C8.21124 27.5058 8.24223 27.512 8.26136 27.5149C8.29548 27.5181 8.40148 27.5131 8.47164 27.497C8.61843 27.424 8.81306 27.1284 8.81769 26.9327C8.79235 26.8408 8.72581 26.7198 8.69867 26.6865C8.66001 26.6431 8.62153 26.6163 8.61969 26.6149C8.60852 26.6068 8.59939 26.6008 8.59518 26.5981C8.58621 26.5924 8.57903 26.5882 8.57655 26.5868C8.57061 26.5833 8.56589 26.5807 8.56459 26.58C8.56108 26.5781 8.5583 26.5766 8.5576 26.5763C8.55644 26.5757 8.5555 26.5752 8.55494 26.5749C8.55301 26.5739 8.55136 26.573 8.55073 26.5727C8.54899 26.5718 8.54705 26.5709 8.54506 26.5699L8.09689 27.4638ZM8.09731 27.464L8.09763 27.4642L8.54432 26.5695L8.54399 26.5693L8.09731 27.464ZM19.2647 25.6758C19.3254 25.6713 19.4286 25.6751 19.5381 25.7338C19.6577 25.7979 19.7327 25.8995 19.77 25.9989C19.8288 26.1557 19.7888 26.289 19.7846 26.3044C19.7664 26.3721 19.7371 26.4205 19.7354 26.4234C19.7211 26.4483 19.7076 26.4666 19.7055 26.4694C19.697 26.4811 19.6899 26.4896 19.6877 26.4923C19.6816 26.4997 19.6768 26.5049 19.6746 26.5074L18.9369 25.8322C18.9318 25.8378 18.9251 25.8453 18.9177 25.8543C18.9148 25.8577 18.9073 25.8669 18.8985 25.8789C18.8963 25.8819 18.8827 25.9003 18.8683 25.9254C18.8666 25.9283 18.8372 25.9767 18.819 26.0445C18.8149 26.0598 18.7749 26.1932 18.8336 26.35C18.8709 26.4493 18.946 26.551 19.0656 26.6151C19.1751 26.6738 19.2782 26.6776 19.3389 26.6731L19.2647 25.6758ZM18.9108 25.8632C18.9137 25.8595 18.9183 25.8537 18.9245 25.8465C18.9271 25.8435 18.933 25.8367 18.9411 25.8283C18.9443 25.825 18.9536 25.8152 18.9665 25.8036C18.9719 25.7987 18.9867 25.7854 19.0073 25.7704C19.0172 25.7632 19.0376 25.7488 19.0654 25.7339C19.0796 25.7263 19.1017 25.7153 19.1299 25.7049C19.1559 25.6954 19.2031 25.6804 19.2644 25.6758L19.3392 26.673C19.4474 26.6649 19.5236 26.6229 19.5383 26.615C19.5661 26.6 19.5866 26.5856 19.5964 26.5784C19.617 26.5634 19.6319 26.5501 19.6374 26.5451C19.6504 26.5334 19.6599 26.5235 19.6632 26.52C19.6717 26.5112 19.6781 26.5038 19.6814 26.5C19.6889 26.4913 19.6954 26.4832 19.7007 26.4764L18.9108 25.8632ZM11.5538 26.0359C11.5033 26.0566 11.461 26.0639 11.446 26.0664C11.426 26.0697 11.4099 26.0711 11.4005 26.0718C11.3819 26.0731 11.3672 26.0731 11.3608 26.0731C11.3469 26.073 11.3361 26.0723 11.3324 26.072C11.3234 26.0715 11.3164 26.0708 11.3141 26.0705C11.3082 26.0699 11.3038 26.0694 11.302 26.0691C11.2977 26.0686 11.2947 26.0681 11.2933 26.0679L11.4494 25.0801C11.4437 25.0792 11.4374 25.0783 11.4308 25.0774C11.4279 25.0771 11.4226 25.0764 11.4161 25.0757C11.4135 25.0755 11.4063 25.0747 11.3971 25.0741C11.3934 25.0739 11.3825 25.0732 11.3685 25.0731C11.3621 25.0731 11.3474 25.073 11.3287 25.0744C11.3194 25.0751 11.3032 25.0765 11.2833 25.0798C11.2682 25.0822 11.2259 25.0896 11.1754 25.1103L11.5538 26.0359ZM11.4286 25.0773C11.429 25.0773 11.4317 25.0777 11.4359 25.0782C11.4374 25.0785 11.4427 25.0792 11.4497 25.0804C11.4513 25.0807 11.4624 25.0825 11.4762 25.0857C11.4772 25.0859 11.5055 25.092 11.5391 25.1045C11.5492 25.1083 11.5682 25.1157 11.591 25.1273C11.6059 25.1349 11.661 25.1629 11.7166 25.218C11.761 25.2619 11.9348 25.4598 11.8361 25.7395C11.7592 25.9574 11.5726 26.0282 11.5538 26.0359L11.1754 25.1103C11.1566 25.118 10.97 25.1888 10.8931 25.4067C10.7944 25.6864 10.9683 25.8843 11.0126 25.9282C11.0682 25.9833 11.1233 26.0114 11.1382 26.0189C11.161 26.0305 11.18 26.0379 11.1902 26.0417C11.2238 26.0542 11.2521 26.0603 11.2531 26.0605C11.2672 26.0637 11.2784 26.0656 11.2803 26.066C11.2878 26.0672 11.2939 26.0681 11.2965 26.0685C11.303 26.0694 11.309 26.0701 11.3142 26.0707L11.4286 25.0773ZM9.88952 23.888C9.8896 23.888 9.88988 23.8882 9.89034 23.8884C9.89077 23.8886 9.89155 23.889 9.89261 23.8896C9.89356 23.8901 9.8954 23.891 9.8978 23.8923C9.8992 23.8931 9.90513 23.8963 9.91268 23.9007C9.91537 23.9022 9.9257 23.9083 9.93844 23.9168C9.94357 23.9202 9.95954 23.931 9.97853 23.9466C9.98735 23.9539 10.0072 23.9707 10.0295 23.9951C10.0365 24.0028 10.1122 24.0807 10.1449 24.209C10.1649 24.2877 10.1765 24.4187 10.107 24.5569C10.0376 24.695 9.92566 24.7636 9.85116 24.7944C9.72933 24.8447 9.62215 24.8309 9.61174 24.8299C9.55701 24.8246 9.51516 24.8108 9.51181 24.8097C9.48968 24.8028 9.47279 24.7958 9.47057 24.7949C9.46061 24.7908 9.45304 24.7873 9.45169 24.7866C9.44886 24.7853 9.4467 24.7843 9.44557 24.7838C9.43949 24.7809 9.43932 24.7806 9.44571 24.784L9.91781 23.9025C9.90438 23.8953 9.89046 23.8881 9.8784 23.8823C9.87652 23.8814 9.87373 23.8801 9.8704 23.8785C9.86855 23.8777 9.8606 23.874 9.85038 23.8698C9.84804 23.8688 9.83106 23.8618 9.80886 23.8549C9.80549 23.8538 9.76361 23.84 9.70886 23.8346C9.69845 23.8336 9.59127 23.8198 9.46943 23.8701C9.39492 23.9009 9.28303 23.9696 9.21361 24.1076C9.1441 24.2458 9.15572 24.3769 9.17572 24.4555C9.20836 24.5838 9.28404 24.6617 9.29106 24.6694C9.31336 24.6938 9.33326 24.7107 9.34209 24.718C9.3611 24.7336 9.37709 24.7444 9.38226 24.7479C9.39506 24.7564 9.40549 24.7625 9.40832 24.7642C9.42057 24.7713 9.43124 24.7768 9.43165 24.777C9.43524 24.7789 9.4386 24.7806 9.44138 24.782L9.88952 23.888ZM9.9077 23.8972L9.89139 23.8889L9.43951 24.781L9.45582 24.7893L9.9077 23.8972Z" fill="#7E7EFD"/>
</g>
<rect x="6" y="11" width="5" height="3" fill="#7E7EFD"/>
<circle cx="22" cy="3" r="2" fill="#7E7EFD"/>
<circle cx="22" cy="3" r="2" fill="#7E7EFD"/>
<circle cx="22" cy="3" r="2" fill="#7E7EFD"/>
<circle cx="22" cy="3" r="2" fill="#7E7EFD"/>
<circle cx="18" cy="4" r="2" fill="#7E7EFD"/>
<circle cx="18" cy="4" r="2" fill="#7E7EFD"/>
<circle cx="18" cy="4" r="2" fill="#7E7EFD"/>
<circle cx="18" cy="4" r="2" fill="#7E7EFD"/>
<circle cx="31" cy="9" r="2" fill="#7E7EFD"/>
<circle cx="31" cy="9" r="2" fill="#7E7EFD"/>
<circle cx="31" cy="9" r="2" fill="#7E7EFD"/>
<circle cx="31" cy="9" r="2" fill="#7E7EFD"/>
<circle cx="11" cy="27" r="2" fill="#7E7EFD"/>
<circle cx="11" cy="27" r="2" fill="#7E7EFD"/>
<circle cx="11" cy="27" r="2" fill="#7E7EFD"/>
<circle cx="11" cy="27" r="2" fill="#7E7EFD"/>
<ellipse cx="18.9996" cy="26.5" rx="1" ry="0.5" transform="rotate(-38.6384 18.9996 26.5)" fill="#7E7EFD"/>
<ellipse cx="18.9996" cy="26.5" rx="1" ry="0.5" transform="rotate(-38.6384 18.9996 26.5)" fill="#7E7EFD"/>
<ellipse cx="18.9996" cy="26.5" rx="1" ry="0.5" transform="rotate(-38.6384 18.9996 26.5)" fill="#7E7EFD"/>
<ellipse cx="18.9996" cy="26.5" rx="1" ry="0.5" transform="rotate(-38.6384 18.9996 26.5)" fill="#7E7EFD"/>
<ellipse cx="29.5" cy="15" rx="1.5" ry="2" fill="#7E7EFD"/>
<ellipse cx="29.5" cy="15" rx="1.5" ry="2" fill="#7E7EFD"/>
<ellipse cx="29.5" cy="15" rx="1.5" ry="2" fill="#7E7EFD"/>
<ellipse cx="29.5" cy="15" rx="1.5" ry="2" fill="#7E7EFD"/>
<path d="M31.001 14C31.501 14 31.0079 14.9397 30.6122 15.1604C30.2165 15.3811 29.7977 15.4284 29.441 15.2929C29.0842 15.1573 28.8162 14.849 28.6913 14.4304C28.5665 14.0119 28.5941 13.5146 28.7686 13.0395C28.9432 12.5643 29.2515 12.147 29.6311 11.8722C30.0106 11.5973 30.433 11.4856 30.8123 11.5597C31.1916 11.6338 31.4996 11.8882 31.6735 12.2711C31.8475 12.6541 31.501 13 31.501 13L31.001 14Z" fill="#7E7EFD"/>
<path d="M31.001 14C31.501 14 31.0079 14.9397 30.6122 15.1604C30.2165 15.3811 29.7977 15.4284 29.441 15.2929C29.0842 15.1573 28.8162 14.849 28.6913 14.4304C28.5665 14.0119 28.5941 13.5146 28.7686 13.0395C28.9432 12.5643 29.2515 12.147 29.6311 11.8722C30.0106 11.5973 30.433 11.4856 30.8123 11.5597C31.1916 11.6338 31.4996 11.8882 31.6735 12.2711C31.8475 12.6541 31.501 13 31.501 13L31.001 14Z" fill="#7E7EFD"/>
<path d="M31.001 14C31.501 14 31.0079 14.9397 30.6122 15.1604C30.2165 15.3811 29.7977 15.4284 29.441 15.2929C29.0842 15.1573 28.8162 14.849 28.6913 14.4304C28.5665 14.0119 28.5941 13.5146 28.7686 13.0395C28.9432 12.5643 29.2515 12.147 29.6311 11.8722C30.0106 11.5973 30.433 11.4856 30.8123 11.5597C31.1916 11.6338 31.4996 11.8882 31.6735 12.2711C31.8475 12.6541 31.501 13 31.501 13L31.001 14Z" fill="#7E7EFD"/>
<path d="M31.001 14C31.501 14 31.0079 14.9397 30.6122 15.1604C30.2165 15.3811 29.7977 15.4284 29.441 15.2929C29.0842 15.1573 28.8162 14.849 28.6913 14.4304C28.5665 14.0119 28.5941 13.5146 28.7686 13.0395C28.9432 12.5643 29.2515 12.147 29.6311 11.8722C30.0106 11.5973 30.433 11.4856 30.8123 11.5597C31.1916 11.6338 31.4996 11.8882 31.6735 12.2711C31.8475 12.6541 31.501 13 31.501 13L31.001 14Z" fill="#7E7EFD"/>
<ellipse cx="6.5" cy="12.5" rx="1.5" ry="0.5" fill="#7E7EFD"/>
<path d="M8.5 27L8 27.5" stroke="#7E7EFD"/>
<defs>
<filter id="filter0_d" x="0.5" y="0.5" width="39.9775" height="38.3444" filterUnits="userSpaceOnUse" color-interpolation-filters="sRGB">
<feFlood flood-opacity="0" result="BackgroundImageFix"/>
<feColorMatrix in="SourceAlpha" type="matrix" values="0 0 0 0 0 0 0 0 0 0 0 0 0 0 0 0 0 0 127 0" result="hardAlpha"/>
<feOffset dy="4"/>
<feGaussianBlur stdDeviation="2"/>
<feComposite in2="hardAlpha" operator="out"/>
<feColorMatrix type="matrix" values="0 0 0 0 0 0 0 0 0 0 0 0 0 0 0 0 0 0 0.25 0"/>
<feBlend mode="normal" in2="BackgroundImageFix" result="effect1_dropShadow"/>
<feBlend mode="normal" in="SourceGraphic" in2="effect1_dropShadow" result="shape"/>
</filter>
</defs>
</svg>
