<svg width="29" height="29" viewBox="0 0 29 29" fill="none" xmlns="http://www.w3.org/2000/svg">
<g filter="url(#filter0_d)">
<path d="M14.5 0C8.70156 0 4 4.70156 4 10.5C4 16.2984 8.70156 21 14.5 21C20.2984 21 25 16.2984 25 10.5C25 4.70156 20.2984 0 14.5 0ZM14.5 19.2188C9.68594 19.2188 5.78125 15.3141 5.78125 10.5C5.78125 5.68594 9.68594 1.78125 14.5 1.78125C19.3141 1.78125 23.2188 5.68594 23.2188 10.5C23.2188 15.3141 19.3141 19.2188 14.5 19.2188ZM17.2586 5.42344C16.8859 5.34141 16.4523 5.29688 15.9625 5.29688C13.4617 5.29688 11.7695 6.60234 11.3078 8.81016H10.5625C10.4594 8.81016 10.375 8.89453 10.375 8.99766V9.63516C10.375 9.73828 10.4594 9.82266 10.5625 9.82266H11.1812C11.1742 9.91875 11.1742 10.0195 11.1742 10.1227V10.9875H10.5625C10.4594 10.9875 10.375 11.0719 10.375 11.175V11.8125C10.375 11.9156 10.4594 12 10.5625 12H11.2703C11.6734 14.325 13.3891 15.7031 15.9625 15.7031C16.4523 15.7031 16.8859 15.6633 17.2586 15.5836C17.3453 15.5648 17.4086 15.4898 17.4086 15.4008V14.3977C17.4086 14.2805 17.3008 14.1914 17.1859 14.2148C16.8414 14.2805 16.4383 14.3109 15.9719 14.3109C14.3664 14.3109 13.2883 13.4531 12.9297 12H15.9906C16.0937 12 16.1781 11.9156 16.1781 11.8125V11.175C16.1781 11.0719 16.0937 10.9875 15.9906 10.9875H12.7938V10.1437C12.7938 10.0336 12.7937 9.92344 12.8008 9.82031H15.9859C16.0891 9.82031 16.1734 9.73594 16.1734 9.63281V8.99531C16.1734 8.89219 16.0891 8.80781 15.9859 8.80781H12.9789C13.382 7.47422 14.4391 6.68906 15.9695 6.68906C16.4359 6.68906 16.8391 6.72422 17.1813 6.79219C17.2084 6.79773 17.2365 6.79718 17.2634 6.79058C17.2903 6.78398 17.3155 6.77148 17.337 6.754C17.3585 6.73651 17.3759 6.71447 17.3879 6.68946C17.3998 6.66446 17.4061 6.6371 17.4062 6.60938V5.60625C17.4062 5.51719 17.3453 5.44219 17.2586 5.42344V5.42344Z" fill="#7E7EFD"/>
</g>
<defs>
<filter id="filter0_d" x="0" y="0" width="29" height="29" filterUnits="userSpaceOnUse" color-interpolation-filters="sRGB">
<feFlood flood-opacity="0" result="BackgroundImageFix"/>
<feColorMatrix in="SourceAlpha" type="matrix" values="0 0 0 0 0 0 0 0 0 0 0 0 0 0 0 0 0 0 127 0" result="hardAlpha"/>
<feOffset dy="4"/>
<feGaussianBlur stdDeviation="2"/>
<feComposite in2="hardAlpha" operator="out"/>
<feColorMatrix type="matrix" values="0 0 0 0 0 0 0 0 0 0 0 0 0 0 0 0 0 0 0.14 0"/>
<feBlend mode="normal" in2="BackgroundImageFix" result="effect1_dropShadow"/>
<feBlend mode="normal" in="SourceGraphic" in2="effect1_dropShadow" result="shape"/>
</filter>
</defs>
</svg>
