<svg width="18" height="18" viewBox="0 0 18 18" fill="none" xmlns="http://www.w3.org/2000/svg">
<path d="M13.5 6C13.8978 6 14.2794 5.84196 14.5607 5.56066C14.842 5.27936 15 4.89783 15 4.5C15 4.10218 14.842 3.72065 14.5607 3.43934C14.2794 3.15804 13.8978 3 13.5 3C13.1022 3 12.7206 3.15804 12.4393 3.43934C12.158 3.72065 12 4.10218 12 4.5C12 4.89783 12.158 5.27936 12.4393 5.56066C12.7206 5.84196 13.1022 6 13.5 6V6ZM8.25 15V14.25H9.75C9.94891 14.25 10.1397 14.171 10.2803 14.0303C10.421 13.8897 10.5 13.6989 10.5 13.5V12H12C13.2599 11.9997 14.4877 11.6028 15.5094 10.8656C16.5311 10.1284 17.2948 9.08824 17.6923 7.89267C18.0897 6.69709 18.1007 5.40674 17.7237 4.20457C17.3467 3.0024 16.6008 1.94941 15.5918 1.1949C14.5828 0.440387 13.3619 0.0226427 12.1022 0.000894429C10.8425 -0.0208539 9.60786 0.354497 8.57343 1.07373C7.53899 1.79296 6.75721 2.81958 6.33892 4.00802C5.92064 5.19646 5.88708 6.48642 6.243 7.695L0.438001 13.5C0.157226 13.7815 -0.00031253 14.1629 4.65498e-07 14.5605V16.5C4.65498e-07 16.8978 0.158036 17.2794 0.43934 17.5607C0.720645 17.842 1.10218 18 1.5 18H4.5C4.89783 18 5.27936 17.842 5.56066 17.5607C5.84196 17.2794 6 16.8978 6 16.5V15.75H7.5C7.69891 15.75 7.88968 15.671 8.03033 15.5303C8.17098 15.3897 8.25 15.1989 8.25 15ZM7.5 6C7.5 5.10998 7.76392 4.23996 8.25839 3.49993C8.75285 2.75991 9.45566 2.18314 10.2779 1.84254C11.1002 1.50195 12.005 1.41283 12.8779 1.58647C13.7508 1.7601 14.5526 2.18868 15.182 2.81802C15.8113 3.44736 16.2399 4.24918 16.4135 5.12209C16.5872 5.99501 16.4981 6.89981 16.1575 7.72208C15.8169 8.54434 15.2401 9.24715 14.5001 9.74161C13.76 10.2361 12.89 10.5 12 10.5H9.75C9.55109 10.5 9.36032 10.579 9.21967 10.7197C9.07902 10.8603 9 11.0511 9 11.25V12.75H7.5C7.30109 12.75 7.11032 12.829 6.96967 12.9697C6.82902 13.1103 6.75 13.3011 6.75 13.5V14.25H5.25C5.05109 14.25 4.86032 14.329 4.71967 14.4697C4.57902 14.6103 4.5 14.8011 4.5 15V16.5H1.5V14.5605L7.6335 8.427C7.73633 8.32427 7.8071 8.19388 7.83719 8.05167C7.86728 7.90947 7.85541 7.76158 7.803 7.626C7.608 7.122 7.5 6.576 7.5 6Z" fill="#7E7EFD"/>
</svg>
